<?xml version="1.0" encoding="UTF-8"?>
<svg version="1.1" xmlns="http://www.w3.org/2000/svg" width="583" height="359">
<path d="M0 0 C1.18810776 0.03381271 2.37621552 0.06762543 3.60032654 0.10246277 C4.88472122 0.15542007 6.16911591 0.20837738 7.49243164 0.26293945 C8.8104628 0.30683304 10.12849396 0.35072662 11.48646545 0.39595032 C14.27690737 0.48996029 17.06668923 0.59452404 19.85644531 0.70703125 C23.42814635 0.85062284 27.00016972 0.97236032 30.57291317 1.08671856 C33.98396728 1.19799421 37.39438375 1.32457327 40.80493164 1.45043945 C42.72848732 1.51469368 42.72848732 1.51469368 44.69090271 1.58024597 C45.88216263 1.62981949 47.07342255 1.67939301 48.30078125 1.73046875 C49.34874374 1.77060593 50.39670624 1.8107431 51.47642517 1.85209656 C54.17738165 2.18408602 55.89525699 2.80657506 58.21508789 4.1887207 C58.28464744 13.09881035 58.33792928 22.0088063 58.37052441 30.91910839 C58.38616971 35.05668426 58.40738706 39.19407414 58.44140625 43.33154297 C58.47404048 47.32563921 58.49194945 51.31955672 58.49971962 55.31377602 C58.50525586 56.83639654 58.51606689 58.35900746 58.53227806 59.88155174 C58.55410703 62.0169514 58.55705263 64.1516158 58.55566406 66.28710938 C58.56565681 68.10912117 58.56565681 68.10912117 58.57585144 69.96794128 C58.18067082 73.4959851 57.33579275 75.3705507 55.21508789 78.1887207 C52.89164755 79.35044087 51.4689669 79.34318293 48.87988281 79.39404297 C47.53158638 79.4239608 47.53158638 79.4239608 46.15605164 79.45448303 C45.17908829 79.47119553 44.20212494 79.48790802 43.19555664 79.50512695 C42.18600418 79.52590805 41.17645172 79.54668915 40.13630676 79.56809998 C37.99016621 79.61142556 35.84397839 79.65245975 33.69775391 79.69140625 C30.4540728 79.75028614 27.2105723 79.81550168 23.96704102 79.88208008 C19.86018566 79.96596792 15.75357387 80.03252553 11.64624023 80.08764648 C8.40466601 80.13447163 5.17987177 80.22913707 1.9440918 80.42651367 C-6.09215592 80.80533805 -6.09215592 80.80533805 -9.30834961 77.94262695 C-10.0612793 76.27905273 -10.0612793 76.27905273 -10.78491211 74.1887207 C-11.14488281 73.30941895 -11.50485352 72.43011719 -11.87573242 71.52416992 C-13.12028339 68.4127925 -14.27266085 65.27830211 -15.40991211 62.1262207 C-16.19345957 59.98938946 -16.97730314 57.85266678 -17.76147461 55.71606445 C-18.10259277 54.77496826 -18.44371094 53.83387207 -18.79516602 52.86425781 C-19.74862723 50.28680802 -20.75239045 47.73539585 -21.78491211 45.1887207 C-21.80996826 46.21344482 -21.83502441 47.23816895 -21.86083984 48.29394531 C-21.95475695 52.08281747 -22.05501528 55.87149951 -22.15722656 59.66015625 C-22.20063508 61.30236374 -22.24230569 62.94461809 -22.28222656 64.58691406 C-22.33978651 66.94260816 -22.40352103 69.29806498 -22.46850586 71.65356445 C-22.4935746 72.76138527 -22.4935746 72.76138527 -22.51914978 73.8915863 C-22.6710404 79.074849 -22.6710404 79.074849 -23.78491211 80.1887207 C-26.13804766 80.26143812 -28.49324879 80.27242938 -30.84741211 80.2512207 C-32.78293945 80.23768555 -32.78293945 80.23768555 -34.75756836 80.22387695 C-35.7565918 80.21227539 -36.75561523 80.20067383 -37.78491211 80.1887207 C-38.70598119 76.28584415 -38.90096462 72.67919393 -38.88256836 68.67358398 C-38.87926514 67.37518585 -38.87596191 66.07678772 -38.87255859 64.73904419 C-38.86843964 64.0500214 -38.86432068 63.36099861 -38.8600769 62.65109634 C-38.84724781 60.48124459 -38.84078066 58.31145442 -38.8359375 56.14157104 C-38.82260559 50.75202252 -38.79842705 45.36253265 -38.77453613 39.97302246 C-38.75474303 35.41607868 -38.73912703 30.85915701 -38.72897339 26.30218124 C-38.72253158 24.17351025 -38.71002298 22.04493138 -38.69726562 19.91629028 C-38.6939624 18.61158783 -38.69065918 17.30688538 -38.68725586 15.96264648 C-38.68201904 14.82078888 -38.67678223 13.67893127 -38.67138672 12.50247192 C-38.72666456 9.08540142 -38.72666456 9.08540142 -39.35351562 5.32785034 C-39.49587646 4.29193756 -39.6382373 3.25602478 -39.78491211 2.1887207 C-38.78491211 1.1887207 -38.78491211 1.1887207 -34.96850586 1.09106445 C-33.38644529 1.09773981 -31.80440052 1.10970195 -30.22241211 1.1262207 C-29.41610352 1.13073242 -28.60979492 1.13524414 -27.77905273 1.13989258 C-25.78097455 1.15171553 -23.78293428 1.16965156 -21.78491211 1.1887207 C-19.05120634 6.27391198 -17.19236525 11.48976819 -15.34741211 16.9387207 C-13.02127883 23.77598435 -10.52695324 30.50639057 -7.78491211 37.1887207 C-7.75572577 32.83456826 -7.73805066 28.48044123 -7.72241211 24.1262207 C-7.70984375 22.28253906 -7.70984375 22.28253906 -7.69702148 20.40161133 C-7.61691844 13.16621843 -7.61691844 13.16621843 -8.47631836 6.00512695 C-8.78491211 3.1887207 -8.78491211 3.1887207 -7.66575623 1.52449036 C-5.01943414 -0.35491937 -3.22517117 -0.11136681 0 0 Z M9.21508789 7.1887207 C8.09691413 10.54324199 8.09482919 13.05290335 8.1015625 16.58789062 C8.10141647 17.23206436 8.10127045 17.8762381 8.10112 18.53993225 C8.10181594 20.66638573 8.10959341 22.7927513 8.11743164 24.91918945 C8.11929695 26.39463757 8.12072032 27.87008632 8.12171936 29.34553528 C8.12553563 33.22697665 8.13535833 37.10838055 8.14642334 40.98980713 C8.15665658 44.95128879 8.16122108 48.91277651 8.16625977 52.87426758 C8.17698139 60.64576903 8.19404714 68.41723961 8.21508789 76.1887207 C11.46491924 75.10087103 11.46491924 75.10087103 14.21508789 73.1887207 C14.32478697 71.27729409 14.36419606 69.36179977 14.3762207 67.44726562 C14.38582825 66.2189653 14.39543579 64.99066498 14.40533447 63.72514343 C14.41018265 62.37316065 14.41446143 61.02117572 14.41821289 59.66918945 C14.42396282 58.29014584 14.42972057 56.91110226 14.43548584 55.53205872 C14.44600615 52.63595201 14.45184165 49.73987314 14.45532227 46.84375 C14.4608009 43.13461301 14.48481057 39.42584426 14.51329422 35.71682262 C14.53193198 32.86606275 14.53712685 30.01539123 14.53865814 27.16457558 C14.54168405 25.79743759 14.54971057 24.43030114 14.56284332 23.06322289 C14.57992106 21.14834234 14.57617625 19.23331044 14.5715332 17.31835938 C14.57517883 16.22883469 14.57882446 15.13931 14.58258057 14.01676941 C14.17059674 10.84633796 13.45098946 9.4443979 11.21508789 7.1887207 C10.55508789 7.1887207 9.89508789 7.1887207 9.21508789 7.1887207 Z M29.21508789 16.1887207 C28.42495556 26.98249276 28.10747375 37.74029979 28.09008789 48.5637207 C28.08557617 49.74619385 28.08106445 50.92866699 28.07641602 52.14697266 C28.07834961 53.26160889 28.0802832 54.37624512 28.08227539 55.5246582 C28.08340332 56.52029785 28.08453125 57.5159375 28.08569336 58.54174805 C28.14151483 61.4465842 28.14151483 61.4465842 29.21508789 65.1887207 C33.83508789 65.1887207 38.45508789 65.1887207 43.21508789 65.1887207 C43.23973036 58.37109646 43.25792033 51.55349791 43.27001953 44.73583984 C43.27506123 42.41454619 43.28189441 40.09325573 43.29052734 37.77197266 C43.30260014 34.44343276 43.30831768 31.11493468 43.31274414 27.78637695 C43.31790543 26.74159683 43.32306671 25.69681671 43.3283844 24.62037659 C43.32845993 23.65945602 43.32853546 22.69853546 43.32861328 21.70849609 C43.3319442 20.43275475 43.3319442 20.43275475 43.33534241 19.13124084 C43.42989073 17.18283525 43.42989073 17.18283525 42.21508789 16.1887207 C40.02869336 16.11613124 37.840084 16.10498288 35.65258789 16.1262207 C34.45504883 16.13524414 33.25750977 16.14426758 32.02368164 16.15356445 C30.63342773 16.1709668 30.63342773 16.1709668 29.21508789 16.1887207 Z " fill="#FAFEFE" transform="translate(318.784912109375,166.811279296875)"/>
<path d="M0 0 C1.07080352 4.42598786 1.97716383 8.61106998 2.296875 13.15234375 C3.00575697 20.63336991 4.93353935 27.87874773 6.70092773 35.16577148 C7.30656278 37.66301875 7.90317715 40.16227825 8.49804688 42.66210938 C10.84652528 52.48417847 13.34106409 62.25727128 16 72 C17.32 72.33 18.64 72.66 20 73 C20 70.03 20 67.06 20 64 C28.91 64 37.82 64 47 64 C47 58.39 47 52.78 47 47 C44.92138672 47.05220703 44.92138672 47.05220703 42.80078125 47.10546875 C40.97136632 47.1336136 39.14193824 47.16091301 37.3125 47.1875 C36.40048828 47.21263672 35.48847656 47.23777344 34.54882812 47.26367188 C25.82679198 47.35882136 25.82679198 47.35882136 22 44 C19.49429509 40.31925956 19.66050574 36.42599168 19.62890625 32.12890625 C19.61536354 30.98989113 19.61536354 30.98989113 19.60154724 29.8278656 C19.58706867 28.22504607 19.57816395 26.62216776 19.57446289 25.01928711 C19.56255449 22.57369145 19.51334238 20.13061124 19.46289062 17.68554688 C19.45342677 16.12501226 19.44619155 14.56446222 19.44140625 13.00390625 C19.42187393 12.27667862 19.40234161 11.54945099 19.38221741 10.80018616 C19.41496786 7.09585707 19.92107669 5.11626626 22.0144043 2.0324707 C25.82237799 -0.5598411 28.88112011 -0.65634342 33.328125 -0.5234375 C34.11773621 -0.51873444 34.90734741 -0.51403137 35.72088623 -0.50918579 C38.23149367 -0.4879084 40.73996014 -0.43130266 43.25 -0.375 C44.95310517 -0.358487 46.65623282 -0.34414045 48.359375 -0.33203125 C60.80414657 -0.19585343 60.80414657 -0.19585343 62 1 C61.96200774 3.1480242 61.84473342 5.29490133 61.6875 7.4375 C61.60886719 8.61183594 61.53023438 9.78617188 61.44921875 10.99609375 C61 14 61 14 59 16 C56.66162109 16.22705078 56.66162109 16.22705078 53.7734375 16.1953125 C52.2265625 16.18564453 52.2265625 16.18564453 50.6484375 16.17578125 C49.56820312 16.15902344 48.48796875 16.14226562 47.375 16.125 C46.28703125 16.11597656 45.1990625 16.10695312 44.078125 16.09765625 C41.38532351 16.07403518 38.69263465 16.03816333 36 16 C35.67 21.28 35.34 26.56 35 32 C37.16949219 31.91298828 37.16949219 31.91298828 39.3828125 31.82421875 C41.29684264 31.77730625 43.21090779 31.73180769 45.125 31.6875 C46.07632813 31.64560547 47.02765625 31.60371094 48.0078125 31.56054688 C48.9359375 31.54443359 49.8640625 31.52832031 50.8203125 31.51171875 C51.66867676 31.48553467 52.51704102 31.45935059 53.39111328 31.43237305 C57.14559072 32.24925121 59.73046399 33.95349458 62 37 C62.60106905 40.08291502 62.8226362 42.36821646 62.76171875 45.44140625 C62.76508743 46.24609848 62.76845612 47.05079071 62.77192688 47.87986755 C62.77162879 49.57516901 62.7564505 51.27052541 62.72729492 52.96557617 C62.68755668 55.55880099 62.70660923 58.14692352 62.73242188 60.74023438 C62.72486372 62.3906448 62.7139112 64.04104391 62.69921875 65.69140625 C62.7096949 66.85090538 62.7096949 66.85090538 62.72038269 68.03382874 C62.62464236 71.68589972 62.29829081 73.64119665 59.93725586 76.48120117 C56.33672029 78.34296925 53.2706847 78.60237136 49.3046875 78.609375 C48.56311401 78.62600189 47.82154053 78.64262878 47.05749512 78.65975952 C44.66323519 78.70868385 42.26966042 78.72995825 39.875 78.75 C38.23776775 78.77699473 36.6005594 78.80547972 34.96337891 78.83544922 C31.00722989 78.90285412 27.05129324 78.94736324 23.09472656 78.9810791 C20.21928086 79.00705195 17.34405603 79.04776148 14.46875 79.0859375 C12.77085349 79.10136451 11.07293514 79.11466564 9.375 79.125 C8.62589355 79.12983398 7.87678711 79.13466797 7.10498047 79.13964844 C2.24639716 79.12319858 2.24639716 79.12319858 0 78 C-0.47721984 75.28691681 -0.83986541 72.67026185 -1.125 69.9375 C-1.558125 66.0084375 -1.558125 66.0084375 -2 62 C-9.92 62.495 -9.92 62.495 -18 63 C-18.309375 64.216875 -18.61875 65.43375 -18.9375 66.6875 C-19.123125 67.41710937 -19.30875 68.14671875 -19.5 68.8984375 C-20.0544603 71.1057467 -20.0544603 71.1057467 -20.4375 73.8125 C-21.12937021 76.50310637 -21.78908624 77.32649385 -24 79 C-26.7421875 79.3984375 -26.7421875 79.3984375 -29.875 79.375 C-30.90367187 79.38273437 -31.93234375 79.39046875 -32.9921875 79.3984375 C-36.33572176 78.95552777 -38.25651444 77.9133534 -41 76 C-39.515 75.01 -39.515 75.01 -38 74 C-36.9928414 71.47746181 -36.9928414 71.47746181 -36.29833984 68.43969727 C-36.00148285 67.27410782 -35.70462585 66.10851837 -35.39877319 64.90760803 C-35.08928741 63.64001144 -34.77980164 62.37241486 -34.4609375 61.06640625 C-34.13210772 59.75020405 -33.80247489 58.43420224 -33.47207642 57.11839294 C-32.78057245 54.35358358 -32.09726816 51.58691451 -31.41992188 48.81860352 C-30.55820338 45.29854857 -29.67911443 41.78313381 -28.79396629 38.26890659 C-28.10989734 35.54639578 -27.43411347 32.82187976 -26.76079178 30.09669304 C-26.28554533 28.17779395 -25.80451435 26.26033042 -25.32333374 24.34291077 C-23.76374819 17.93415529 -22.60684575 11.79931452 -22.29898071 5.20249939 C-22 3 -22 3 -20 0 C-17.30539203 -0.41455507 -14.8321752 -0.64937933 -12.125 -0.75 C-11.40441406 -0.79253906 -10.68382812 -0.83507812 -9.94140625 -0.87890625 C-6.46278644 -1.0518763 -3.31892239 -1.14685276 0 0 Z M-11 29 C-11.67286212 31.41509441 -12.33846012 33.83180356 -13 36.25 C-13.28617188 37.27287109 -13.28617188 37.27287109 -13.578125 38.31640625 C-14.49957044 41.70600912 -15 44.45778976 -15 48 C-12.03 48 -9.06 48 -6 48 C-7.10690752 41.59406714 -8.33945169 35.28636144 -10 29 C-10.33 29 -10.66 29 -11 29 Z " fill="#FAFEFE" transform="translate(184,168)"/>
<path d="M0 0 C2.24668334 0.94567077 3.46245972 1.95300891 5.16139221 3.69381714 C6.04734825 4.58979614 6.04734825 4.58979614 6.95120239 5.50387573 C7.57735947 6.15179077 8.20351654 6.79970581 8.84864807 7.46725464 C9.82830788 8.46039673 9.82830788 8.46039673 10.82775879 9.47360229 C12.91360886 11.58948197 14.98928632 13.71496293 17.06349182 15.84225464 C19.1421149 17.96865939 21.22288931 20.09276849 23.30993652 22.21090698 C24.60833796 23.52910831 25.90177527 24.8522212 27.18972778 26.18063354 C27.77721298 26.77795288 28.36469818 27.37527222 28.96998596 27.99069214 C29.48420609 28.5184021 29.99842621 29.04611206 30.52822876 29.58981323 C32.09680812 31.0817954 32.09680812 31.0817954 35.00099182 31.84225464 C35.37224182 30.94506714 35.37224182 30.94506714 35.75099182 30.02975464 C37.16469194 27.55577943 38.65154565 26.40855208 41.00099182 24.84225464 C44.33347993 26.29741999 46.55932889 28.13320029 49.14283752 30.67770386 C50.34847099 31.85935623 50.34847099 31.85935623 51.57846069 33.06488037 C52.43590378 33.91696075 53.29334686 34.76904114 54.17677307 35.64694214 C55.06132675 36.52246735 55.94588043 37.39799255 56.85723877 38.30004883 C58.72339531 40.15170436 60.58675802 42.00617923 62.44752502 43.86325073 C64.83454569 46.24486744 67.23733344 48.60987809 69.64431477 50.97129631 C71.93697137 53.22712518 74.21194829 55.50065227 76.48927307 57.77194214 C77.35683731 58.61997406 78.22440155 59.46800598 79.11825562 60.34173584 C79.90625046 61.13580841 80.6942453 61.92988098 81.50611877 62.74801636 C82.20687027 63.4436972 82.90762177 64.13937805 83.62960815 64.85614014 C85.00099182 66.84225464 85.00099182 66.84225464 84.84051514 68.92626953 C83.64632791 71.65167918 82.00324759 73.65797562 80.00099182 75.84225464 C79.34099182 75.84225464 78.68099182 75.84225464 78.00099182 75.84225464 C78.00099182 76.50225464 78.00099182 77.16225464 78.00099182 77.84225464 C77.34099182 77.84225464 76.68099182 77.84225464 76.00099182 77.84225464 C76.00099182 78.50225464 76.00099182 79.16225464 76.00099182 79.84225464 C75.34099182 79.84225464 74.68099182 79.84225464 74.00099182 79.84225464 C73.75349182 80.39912964 73.50599182 80.95600464 73.25099182 81.52975464 C71.77997015 84.25114474 69.96796902 86.45803986 68.00099182 88.84225464 C66.99525404 90.17126528 65.99303774 91.50299265 65.00099182 92.84225464 C62.03099182 92.34725464 62.03099182 92.34725464 59.00099182 91.84225464 C58.31349182 89.52975464 58.31349182 89.52975464 58.00099182 86.84225464 C59.48547988 84.61552256 60.63916707 83.95254347 63.19239807 83.17428589 C67.18680486 81.2798593 69.78058596 78.38202598 72.81349182 75.21725464 C73.41097229 74.60623901 74.00845276 73.99522339 74.6240387 73.36569214 C76.08994289 71.86460625 77.54642175 70.35432602 79.00099182 68.84225464 C74.82321417 63.85632589 70.46971906 59.1752118 65.85255432 54.59616089 C65.19516266 53.94018417 64.537771 53.28420746 63.86045837 52.60835266 C61.7846632 50.53810196 59.70539755 48.47137813 57.62599182 46.40475464 C56.20779102 44.99157602 54.78982006 43.5781667 53.37208557 42.16452026 C49.91770405 38.72109399 46.46020813 35.28082365 43.00099182 31.84225464 C41.02099182 32.83225464 41.02099182 32.83225464 39.00099182 33.84225464 C38.57096448 37.83501387 38.57096448 37.83501387 40.94459534 40.14474487 C41.83074524 40.97175903 42.71689514 41.79877319 43.62989807 42.65084839 C44.58187073 43.56286011 45.53384338 44.47487183 46.5146637 45.41452026 C48.03972177 46.8524884 49.56933452 48.28518814 51.10426331 49.71261597 C52.58360803 51.09547652 54.04455867 52.49793251 55.50489807 53.90084839 C56.38992004 54.72899048 57.27494202 55.55713257 58.18678284 56.41036987 C60.00099182 58.84225464 60.00099182 58.84225464 60.09815979 61.31710815 C58.62624449 64.70474054 56.60915034 66.63217525 53.94239807 69.18600464 C53.43804733 69.67758057 52.93369659 70.16915649 52.4140625 70.67562866 C50.80647678 72.24110122 49.18645703 73.79274312 47.56349182 75.34225464 C45.94497986 76.8925756 44.32980879 78.44577776 42.72363281 80.00888062 C41.26469655 81.42817084 39.79437698 82.83573186 38.32350159 84.24264526 C36.05682937 86.77975508 35.16601755 88.70620189 34.00099182 91.84225464 C31.56349182 92.84225464 31.56349182 92.84225464 29.00099182 92.84225464 C27.12599182 91.71725464 27.12599182 91.71725464 26.00099182 89.84225464 C25.81349182 87.46725464 25.81349182 87.46725464 27.00099182 84.84225464 C28.53297424 83.81954956 28.53297424 83.81954956 30.48146057 82.76022339 C35.93548851 79.48011888 40.09579787 75.07485296 44.50099182 70.52975464 C45.3234137 69.69379761 46.14583557 68.85784058 46.99317932 67.99655151 C49.00284518 65.95183335 51.00511669 63.90042101 53.00099182 61.84225464 C51.54353758 58.4788987 49.68981329 56.29691459 47.08692932 53.73287964 C46.32638245 52.97877808 45.56583557 52.22467651 44.78224182 51.44772339 C43.59114807 50.28176636 43.59114807 50.28176636 42.37599182 49.09225464 C41.57419495 48.2994812 40.77239807 47.50670776 39.94630432 46.68991089 C37.96896336 44.7361097 35.98710273 42.78713361 34.00099182 40.84225464 C29.89990296 42.46381488 27.16951016 45.41902494 24.14161682 48.50631714 C23.31775482 49.33442398 23.31775482 49.33442398 22.47724915 50.17926025 C20.73039889 51.93727279 18.99064581 53.70212354 17.25099182 55.46725464 C16.06525591 56.66302544 14.87906302 57.85834329 13.69239807 59.05319214 C10.78994097 61.97765717 7.89382772 64.90827337 5.00099182 67.84225464 C8.08590437 74.41279676 14.15187228 81.15049137 21.06349182 83.71725464 C24.00099182 84.84225464 24.00099182 84.84225464 25.12599182 86.77975464 C24.95777875 89.55527037 23.8207799 90.80409199 22.00099182 92.84225464 C17.25099182 92.09225464 17.25099182 92.09225464 15.00099182 89.84225464 C14.72513245 89.07268433 14.44927307 88.30311401 14.16505432 87.51022339 C12.75532266 84.2791941 10.94165482 82.55344592 8.37599182 80.15475464 C6.88284119 78.75345397 5.41509791 77.32328345 4.00099182 75.84225464 C4.00099182 75.18225464 4.00099182 74.52225464 4.00099182 73.84225464 C2.35099182 73.18225464 0.70099182 72.52225464 -0.99900818 71.84225464 C-3.28244967 74.03785413 -5.54827403 76.25084602 -7.81150818 78.46725464 C-8.45410583 79.08471558 -9.09670349 79.70217651 -9.7587738 80.33834839 C-13.43469222 83.95712818 -15.80713374 87.11092697 -17.99900818 91.84225464 C-20.49900818 92.90475464 -20.49900818 92.90475464 -22.99900818 92.84225464 C-24.87400818 91.71725464 -24.87400818 91.71725464 -25.99900818 89.84225464 C-26.18650818 87.40475464 -26.18650818 87.40475464 -24.99900818 84.84225464 C-23.17128978 83.96224207 -21.33728085 83.0931799 -19.47557068 82.28756714 C-14.19190041 79.20403717 -10.15526374 74.27355652 -5.99900818 69.84225464 C-7.62056842 65.74116577 -10.57577848 63.01077297 -13.66307068 59.98287964 C-14.49117752 59.15901764 -14.49117752 59.15901764 -15.33601379 58.31851196 C-17.09402633 56.57166171 -18.85887708 54.83190863 -20.62400818 53.09225464 C-21.81977898 51.90651873 -23.01509683 50.72032584 -24.20994568 49.53366089 C-27.13441071 46.63120378 -30.06502691 43.73509053 -32.99900818 40.84225464 C-36.62791627 42.53218265 -38.85761065 44.55282246 -41.62400818 47.46725464 C-43.04410945 48.96284302 -44.49495786 50.43111862 -45.99900818 51.84225464 C-46.65900818 51.84225464 -47.31900818 51.84225464 -47.99900818 51.84225464 C-47.99900818 52.50225464 -47.99900818 53.16225464 -47.99900818 53.84225464 C-48.65900818 53.84225464 -49.31900818 53.84225464 -49.99900818 53.84225464 C-50.28775818 54.41975464 -50.57650818 54.99725464 -50.87400818 55.59225464 C-51.91567485 57.67558797 -52.95734151 59.75892131 -53.99900818 61.84225464 C-51.10961237 64.80607023 -48.21025431 67.75973851 -45.30149841 70.70455933 C-44.31436625 71.70673381 -43.32994888 72.71159017 -42.34837341 73.71920776 C-40.93307096 75.17109431 -39.50813148 76.61290352 -38.08103943 78.05319214 C-36.80063782 79.35715942 -36.80063782 79.35715942 -35.49436951 80.68746948 C-33.02458153 82.82017163 -31.0582044 83.80222773 -27.99900818 84.84225464 C-26.99900818 85.84225464 -26.99900818 85.84225464 -26.74900818 88.27975464 C-26.83150818 89.12537964 -26.91400818 89.97100464 -26.99900818 90.84225464 C-29.99900818 92.84225464 -29.99900818 92.84225464 -32.37400818 92.96725464 C-34.99900818 91.84225464 -34.99900818 91.84225464 -36.98338318 88.43991089 C-40.92373046 81.87315424 -46.82131727 76.93687116 -52.37693787 71.75216675 C-53.82356984 70.39588998 -55.25146728 69.01971662 -56.67869568 67.64303589 C-57.53189392 66.84035278 -58.38509216 66.03766968 -59.2641449 65.21066284 C-60.99900818 62.84225464 -60.99900818 62.84225464 -61.0622406 60.35324097 C-59.68435175 57.09914525 -57.86366597 55.30472589 -55.30760193 52.86569214 C-54.36336365 51.94787964 -53.41912537 51.03006714 -52.4462738 50.08444214 C-51.44392307 49.12776442 -50.44065663 48.17204527 -49.43650818 47.21725464 C-47.46784398 45.33806081 -45.51063321 43.44882059 -43.55760193 41.55319214 C-42.24747131 40.30481567 -42.24747131 40.30481567 -40.91087341 39.03121948 C-38.67009499 36.95005936 -38.67009499 36.95005936 -38.99900818 33.84225464 C-40.9391034 32.13693141 -40.9391034 32.13693141 -42.99900818 30.84225464 C-48.27533227 36.06802561 -53.54392335 41.30149843 -58.80711365 46.54049683 C-60.59992057 48.32322266 -62.39451517 50.10415254 -64.19090271 51.88327026 C-66.76703717 54.43524902 -69.33675309 56.99353767 -71.90525818 59.55319214 C-72.71458801 60.3521994 -73.52391785 61.15120667 -74.35777283 61.97442627 C-75.09854065 62.71504303 -75.83930847 63.45565979 -76.6025238 64.21871948 C-77.25982483 64.87157928 -77.91712585 65.52443909 -78.59434509 66.19708252 C-80.21545106 67.73521488 -80.21545106 67.73521488 -79.99900818 69.84225464 C-78.60989057 71.25036784 -78.60989057 71.25036784 -76.81150818 72.65475464 C-73.69713888 75.23325068 -70.82009534 77.94056499 -67.99900818 80.84225464 C-65.76977863 83.07148418 -63.90765539 83.72354417 -60.99900818 84.84225464 C-59.99900818 85.84225464 -59.99900818 85.84225464 -59.81150818 88.27975464 C-59.99900818 90.84225464 -59.99900818 90.84225464 -61.99900818 92.84225464 C-64.93650818 92.84225464 -64.93650818 92.84225464 -67.99900818 91.84225464 C-69.05626071 89.87192038 -70.0433583 87.86382168 -70.99900818 85.84225464 C-73.0350426 83.65179046 -75.1646431 81.61258325 -77.35447693 79.57662964 C-78.99900818 77.84225464 -78.99900818 77.84225464 -78.99900818 75.84225464 C-79.65900818 75.84225464 -80.31900818 75.84225464 -80.99900818 75.84225464 C-80.99900818 75.18225464 -80.99900818 74.52225464 -80.99900818 73.84225464 C-81.65900818 73.84225464 -82.31900818 73.84225464 -82.99900818 73.84225464 C-82.99900818 73.18225464 -82.99900818 72.52225464 -82.99900818 71.84225464 C-83.98900818 71.51225464 -84.97900818 71.18225464 -85.99900818 70.84225464 C-85.583496 65.99461258 -83.33644089 64.03313519 -79.99900818 60.84225464 C-78.70549535 59.55423033 -77.41498516 58.26318696 -76.12669373 56.96994019 C-65.41746521 46.26071167 -54.70823669 35.55148315 -43.99900818 24.84225464 C-41.40314553 26.03743306 -39.96452264 26.8799732 -37.99900818 29.02975464 C-37.33900818 29.62787964 -36.67900818 30.22600464 -35.99900818 30.84225464 C-32.71646406 30.490739 -31.0988633 29.2986516 -28.85447693 26.95895386 C-28.26706726 26.35517914 -27.67965759 25.75140442 -27.07444763 25.1293335 C-26.45142761 24.47514435 -25.82840759 23.8209552 -25.18650818 23.14694214 C-23.85082422 21.77820509 -22.5148788 20.40972315 -21.17869568 19.04147339 C-19.08074157 16.87503275 -16.98700093 14.70474779 -14.89842224 12.52926636 C-12.88015158 10.43278653 -10.84693306 8.35175097 -8.81150818 6.27194214 C-7.87697815 5.28458572 -7.87697815 5.28458572 -6.92356873 4.27728271 C-6.33615906 3.67981232 -5.74874939 3.08234192 -5.14353943 2.46676636 C-4.63153992 1.93461517 -4.11954041 1.40246399 -3.59202576 0.85418701 C-1.99900818 -0.15774536 -1.99900818 -0.15774536 0 0 Z M-2.52366638 7.13986206 C-3.10978699 7.7364563 -3.69590759 8.33305054 -4.29978943 8.94772339 C-4.94754333 9.60192261 -5.59529724 10.25612183 -6.26268005 10.93014526 C-7.27684998 11.9694519 -7.27684998 11.9694519 -8.31150818 13.02975464 C-8.9760199 13.70328979 -9.64053162 14.37682495 -10.32518005 15.07077026 C-11.62895103 16.39259544 -12.93099 17.71613148 -14.23118591 19.04147339 C-17.26712287 22.13401185 -20.32516207 25.19733356 -23.45603943 28.19381714 C-24.23334412 28.94405151 -25.0106488 29.69428589 -25.81150818 30.46725464 C-26.60170349 31.22264526 -27.3918988 31.97803589 -28.20603943 32.75631714 C-30.32492984 34.76299596 -30.32492984 34.76299596 -29.99900818 37.84225464 C-29.33900818 37.84225464 -28.67900818 37.84225464 -27.99900818 37.84225464 C-27.77841736 38.38519165 -27.55782654 38.92812866 -27.33055115 39.48751831 C-25.56551041 42.60886373 -23.19712201 44.98850327 -20.69432068 47.51803589 C-19.91373795 48.31216133 -19.91373795 48.31216133 -19.11738586 49.12232971 C-18.01897412 50.23520804 -16.91776469 51.34533115 -15.81394958 52.45285034 C-14.12437874 54.15438145 -12.45435703 55.87367857 -10.78416443 57.59420776 C-9.71370227 58.67412736 -8.64212496 59.75294295 -7.56932068 60.83053589 C-6.8222435 61.60691154 -6.8222435 61.60691154 -6.06007385 62.39897156 C-4.49730731 63.99903632 -4.49730731 63.99903632 -1.99900818 65.84225464 C1.17933431 65.51135225 2.8182672 64.39565278 5.02540588 62.15841675 C5.58568481 61.59791122 6.14596375 61.0374057 6.72322083 60.45991516 C7.3150415 59.85261063 7.90686218 59.24530609 8.51661682 58.61959839 C9.44036102 57.68948692 9.44036102 57.68948692 10.38276672 56.74058533 C12.34599817 54.76057559 14.29853618 52.77038545 16.25099182 50.77975464 C17.5810293 49.43466929 18.91175061 48.09025976 20.24317932 46.74655151 C23.5037672 43.45290558 26.7548037 40.15009125 30.00099182 36.84225464 C28.89622523 33.52795488 28.11909967 32.86428743 25.49708557 30.70553589 C20.78260382 26.70438122 16.42257837 22.41164373 12.06349182 18.02975464 C11.29714417 17.26727417 10.53079651 16.5047937 9.7412262 15.71920776 C9.01355042 14.99024292 8.28587463 14.26127808 7.53614807 13.51022339 C6.88009583 12.85304321 6.22404358 12.19586304 5.54811096 11.51876831 C4.00099182 9.84225464 4.00099182 9.84225464 3.00099182 7.84225464 C2.34099182 7.84225464 1.68099182 7.84225464 1.00099182 7.84225464 C1.00099182 7.18225464 1.00099182 6.52225464 1.00099182 5.84225464 C-1.07884565 5.62621259 -1.07884565 5.62621259 -2.52366638 7.13986206 Z " fill="#28BC97" transform="translate(263.99900817871094,60.157745361328125)"/>
<path d="M0 0 C1.4047577 0.1007254 2.80954482 0.20104118 4.21435547 0.30102539 C5.42236816 0.38731201 6.63038086 0.47359863 7.875 0.5625 C7.8013623 1.85406006 7.72772461 3.14562012 7.65185547 4.47631836 C7.10509712 14.74356547 6.7979352 24.9714445 6.8828125 35.25390625 C6.89068787 36.31064545 6.89856323 37.36738464 6.90667725 38.45614624 C6.94297911 42.79051528 6.98608059 47.12463398 7.04638672 51.45874023 C7.0885725 54.68216035 7.11207147 57.90528686 7.1328125 61.12890625 C7.15143341 62.10589981 7.17005432 63.08289337 7.1892395 64.0894928 C7.20819238 69.08042765 7.16615865 72.52671046 3.875 76.5625 C0.9558564 79.4816436 -2.13749274 78.92520326 -6.0546875 78.96875 C-6.84142853 78.98015015 -7.62816956 78.99155029 -8.43875122 79.0032959 C-10.10478329 79.02220017 -11.77089021 79.03526563 -13.43701172 79.04296875 C-15.98407769 79.06237866 -18.52791151 79.12439694 -21.07421875 79.1875 C-22.69268915 79.20056107 -24.31118266 79.21106163 -25.9296875 79.21875 C-26.6902243 79.2434436 -27.45076111 79.26813721 -28.23434448 79.2935791 C-31.91822925 79.2626103 -33.79494954 78.84752289 -36.60351562 76.42211914 C-39.51493089 70.95598752 -38.6870212 64.1681136 -38.6640625 58.15234375 C-38.67397846 56.7379861 -38.68592313 55.32364136 -38.69979858 53.90931702 C-38.73207747 50.19748415 -38.74254521 46.48594621 -38.74664307 42.77398682 C-38.75541756 36.83014553 -38.79100064 30.88654544 -38.8388176 24.94290352 C-38.85136273 22.87280793 -38.8506485 20.80302064 -38.84854126 18.7328949 C-38.85897964 16.84051842 -38.85897964 16.84051842 -38.86962891 14.90991211 C-38.87088776 13.80215927 -38.87214661 12.69440643 -38.8734436 11.55308533 C-39.12922698 8.51224831 -39.83839682 6.31248711 -41.125 3.5625 C-40.13671875 2.07421875 -40.13671875 2.07421875 -38.125 0.5625 C-35.31372957 0.34535759 -32.7366655 0.27965724 -29.9375 0.375 C-29.18791016 0.38853516 -28.43832031 0.40207031 -27.66601562 0.41601562 C-25.81870233 0.45131461 -23.97175934 0.50512083 -22.125 0.5625 C-21.05982969 3.913188 -21.17535547 6.60308273 -21.54272461 10.08300781 C-22.1147081 16.14127343 -22.33852366 22.15218212 -22.44140625 28.234375 C-22.46218735 29.28280579 -22.48296844 30.33123657 -22.50437927 31.41143799 C-22.56898675 34.71173503 -22.62834009 38.01210128 -22.6875 41.3125 C-22.73077001 43.57031923 -22.77438676 45.82813184 -22.81835938 48.0859375 C-22.92457494 53.57805679 -23.02608342 59.0702446 -23.125 64.5625 C-18.505 64.5625 -13.885 64.5625 -9.125 64.5625 C-9.62 32.8825 -9.62 32.8825 -10.125 0.5625 C-6.91524345 -1.04237828 -3.49153998 -0.26198599 0 0 Z " fill="#FAFEFE" transform="translate(420.125,167.4375)"/>
<path d="M0 0 C1.15680267 0.00424484 1.15680267 0.00424484 2.3369751 0.00857544 C4.79251832 0.01974237 7.2476926 0.04484021 9.703125 0.0703125 C11.37108847 0.08034682 13.03905768 0.08947189 14.70703125 0.09765625 C18.78920397 0.11967025 22.871102 0.15417583 26.953125 0.1953125 C28.68719348 3.41772267 29.14817624 5.16349753 28.640625 8.8203125 C28.54136719 9.59632813 28.44210938 10.37234375 28.33984375 11.171875 C27.953125 13.1953125 27.953125 13.1953125 26.953125 15.1953125 C23.95296588 16.19536554 21.97888744 16.31106835 18.84765625 16.29296875 C17.86474609 16.28974609 16.88183594 16.28652344 15.86914062 16.28320312 C14.84498047 16.27482422 13.82082031 16.26644531 12.765625 16.2578125 C11.21198242 16.25104492 11.21198242 16.25104492 9.62695312 16.24414062 C7.0689858 16.23235276 4.51104814 16.21441732 1.953125 16.1953125 C2.283125 21.1453125 2.613125 26.0953125 2.953125 31.1953125 C4.33886719 31.22109375 5.72460938 31.246875 7.15234375 31.2734375 C8.9818019 31.32972852 10.81122776 31.38707563 12.640625 31.4453125 C13.55263672 31.45949219 14.46464844 31.47367188 15.40429688 31.48828125 C19.72503884 31.64539914 22.30320957 31.79004204 26.03515625 34.1171875 C30.63243016 39.09834782 29.25586214 46.58475685 29.30322266 53.02514648 C29.31977178 54.67502966 29.34704856 56.32484145 29.38525391 57.97436523 C29.44013649 60.35698508 29.4619121 62.73792622 29.4765625 65.12109375 C29.49923187 65.85459549 29.52190125 66.58809723 29.54525757 67.34382629 C29.52903403 71.29374162 29.09986226 73.01122643 26.60791016 76.13745117 C22.2296885 79.5312373 18.34680671 79.34250874 13.0390625 79.328125 C12.26881744 79.32908173 11.49857239 79.33003845 10.70498657 79.33102417 C9.07936522 79.33170401 7.45374113 79.32986338 5.828125 79.32568359 C3.33066779 79.32031796 0.83338923 79.32564265 -1.6640625 79.33203125 C-3.2421879 79.33137072 -4.82031319 79.33009008 -6.3984375 79.328125 C-7.14944733 79.33014923 -7.90045715 79.33217346 -8.67422485 79.33425903 C-13.93191378 79.31027372 -13.93191378 79.31027372 -15.046875 78.1953125 C-15.14596802 75.86371195 -15.17658004 73.52901308 -15.171875 71.1953125 C-15.17445312 69.9165625 -15.17703125 68.6378125 -15.1796875 67.3203125 C-15.046875 64.1953125 -15.046875 64.1953125 -14.046875 63.1953125 C-12.04722518 63.10773247 -10.0445139 63.08834674 -8.04296875 63.09765625 C-6.82802734 63.10087891 -5.61308594 63.10410156 -4.36132812 63.10742188 C-3.08193359 63.11580078 -1.80253906 63.12417969 -0.484375 63.1328125 C0.79888672 63.13732422 2.08214844 63.14183594 3.40429688 63.14648438 C6.5872592 63.15831695 9.77019774 63.17625306 12.953125 63.1953125 C12.953125 58.2453125 12.953125 53.2953125 12.953125 48.1953125 C10.76623047 48.15664062 10.76623047 48.15664062 8.53515625 48.1171875 C6.61194956 48.06089852 4.68877363 48.00355137 2.765625 47.9453125 C1.80591797 47.93113281 0.84621094 47.91695312 -0.14257812 47.90234375 C-4.33758756 47.75718771 -7.36737663 47.53293026 -11.16015625 45.6484375 C-13.76949252 42.25576011 -13.94867338 39.33015941 -14.046875 35.1953125 C-14.0782959 34.1429541 -14.1097168 33.0905957 -14.14208984 32.00634766 C-14.21742433 28.33922646 -14.2324775 24.67567132 -14.234375 21.0078125 C-14.25274414 19.1215918 -14.25274414 19.1215918 -14.27148438 17.19726562 C-14.27341797 15.98619141 -14.27535156 14.77511719 -14.27734375 13.52734375 C-14.28145264 12.43139893 -14.28556152 11.3354541 -14.28979492 10.20629883 C-14.03633218 7.06463457 -13.57403788 4.95060281 -12.046875 2.1953125 C-8.56076277 -0.59924406 -4.25640086 -0.05898081 0 0 Z " fill="#FAFEFE" transform="translate(114.046875,167.8046875)"/>
<path d="M0 0 C5.61 0 11.22 0 17 0 C18.03158022 4.12632088 17.73029814 5.91933762 17 10 C16.91602524 12.30656206 16.88218449 14.61525365 16.88647461 16.92333984 C16.88632858 17.5874588 16.88618256 18.25157776 16.8860321 18.93582153 C16.88672366 21.11089449 16.89448027 23.28587968 16.90234375 25.4609375 C16.90421062 26.97693841 16.90563325 28.49293992 16.90663147 30.00894165 C16.91043544 33.98404631 16.92024747 37.95911398 16.93133545 41.9342041 C16.9415953 45.99649556 16.94613886 50.05879304 16.95117188 54.12109375 C16.96187178 62.08074607 16.97892254 70.04036842 17 78 C13.95017742 79.52491129 10.77877461 79.14361434 7.4375 79.125 C6.73947266 79.12886719 6.04144531 79.13273437 5.32226562 79.13671875 C0.12663994 79.12663994 0.12663994 79.12663994 -1 78 C-1.04063832 76.33382885 -1.042721 74.66611905 -1 73 C-0.67 73 -0.34 73 0 73 C0.02320776 64.62868031 0.04095803 56.25737414 0.05181217 47.8860302 C0.05702257 43.99855281 0.06408665 40.1110975 0.07543945 36.22363281 C0.08633395 32.46945098 0.09229072 28.71529033 0.09487724 24.9610939 C0.09671968 23.53143099 0.10031746 22.10176918 0.10573006 20.67211533 C0.11302753 18.66407154 0.1134088 16.65600627 0.11352539 14.64794922 C0.115746 13.50655487 0.11796661 12.36516052 0.12025452 11.18917847 C0.06975382 7.96793619 0.06975382 7.96793619 -0.56959534 4.70950317 C-1 2 -1 2 0 0 Z " fill="#FBFEFE" transform="translate(255,168)"/>
<path d="M0 0 C0.66 0.33 1.32 0.66 2 1 C1.67 1.99 1.34 2.98 1 4 C1.66 4 2.32 4 3 4 C4.38598633 5.39624023 4.38598633 5.39624023 6.01953125 7.37109375 C10.36803353 12.47869744 14.9858213 17.28045073 19.6875 22.0625 C20.52861328 22.94099609 21.36972656 23.81949219 22.23632812 24.72460938 C23.04908203 25.54896484 23.86183594 26.37332031 24.69921875 27.22265625 C25.42971436 27.97297119 26.16020996 28.72328613 26.9128418 29.49633789 C28.84005141 31.24494428 28.84005141 31.24494428 30.94715881 30.7539978 C34.4306918 29.4745144 36.74101085 26.6635705 39.296875 24.06640625 C39.89050842 23.47327133 40.48414185 22.88013641 41.09576416 22.26902771 C42.34658502 21.01586931 43.59372111 19.75902365 44.83740234 18.4987793 C46.74808333 16.56444041 48.67180197 14.64382956 50.59765625 12.72460938 C51.81069135 11.5059997 53.02295804 10.28662453 54.234375 9.06640625 C54.81241882 8.48927383 55.39046265 7.91214142 55.98602295 7.31752014 C59.00889071 4.64958585 59.00889071 4.64958585 60 1 C60.66 1 61.32 1 62 1 C62 2.32 62 3.64 62 5 C62.99 5.33 63.98 5.66 65 6 C64.55011719 6.37842041 64.10023438 6.75684082 63.63671875 7.14672852 C57.45361804 12.44309948 51.72764562 18.15782058 46 23.9375 C45.02497614 24.9175531 44.0497172 25.8973724 43.07421875 26.87695312 C40.71383382 29.24902313 38.35583095 31.6234086 36 34 C39.08491255 40.57054212 45.15088046 47.30823673 52.0625 49.875 C55 51 55 51 56.125 52.9375 C55.95678693 55.71301573 54.81978808 56.96183735 53 59 C48.25 58.25 48.25 58.25 46 56 C45.72414063 55.23042969 45.44828125 54.46085937 45.1640625 53.66796875 C43.75433083 50.43693946 41.940663 48.71119128 39.375 46.3125 C37.88184937 44.91119933 36.41410609 43.48102881 35 42 C35 41.34 35 40.68 35 40 C33.35 39.34 31.7 38.68 30 38 C27.7165585 40.1955995 25.45073415 42.40859139 23.1875 44.625 C22.22360352 45.55119141 22.22360352 45.55119141 21.24023438 46.49609375 C17.56431596 50.11487354 15.19187444 53.26867233 13 58 C10.5 59.0625 10.5 59.0625 8 59 C6.125 57.875 6.125 57.875 5 56 C4.8125 53.5625 4.8125 53.5625 6 51 C7.8277184 50.11998744 9.66172733 49.25092526 11.5234375 48.4453125 C16.80710777 45.36178253 20.84374444 40.43130189 25 36 C23.37272063 31.94514988 20.49705049 29.15687046 17.4765625 26.10546875 C16.93397797 25.55385574 16.39139343 25.00224274 15.83236694 24.43391418 C14.6868779 23.27395509 13.53858899 22.1167551 12.38769531 20.9621582 C10.62570956 19.18821438 8.88323584 17.39646964 7.140625 15.60351562 C6.02458982 14.47802286 4.9074396 13.35363443 3.7890625 12.23046875 C3.26913727 11.6910112 2.74921204 11.15155365 2.21353149 10.5957489 C0.58521199 8.92989712 0.58521199 8.92989712 -2 7 C-4.31449193 7.01759612 -4.31449193 7.01759612 -6 8 C-6 7.01 -6 6.02 -6 5 C-5.195625 4.731875 -4.39125 4.46375 -3.5625 4.1875 C-2.716875 3.795625 -1.87125 3.40375 -1 3 C-0.67 2.01 -0.34 1.02 0 0 Z " fill="#269D7F" transform="translate(233,94)"/>
<path d="M0 0 C0.75410156 0.05220703 1.50820313 0.10441406 2.28515625 0.15820312 C4.1487937 0.28795004 6.01194996 0.42457488 7.875 0.5625 C7.78412109 2.17898437 7.78412109 2.17898437 7.69140625 3.828125 C6.60129485 24.72229244 6.30538276 45.64672839 5.875 66.5625 C5.545 66.5625 5.215 66.5625 4.875 66.5625 C4.85216446 65.88900009 4.82932892 65.21550018 4.80580139 64.52159119 C4.56688588 57.49706087 4.32268223 50.47272838 4.07543945 43.44848633 C3.98391928 40.82874151 3.89373695 38.20894958 3.80493164 35.58911133 C3.67688019 31.8183895 3.54398165 28.04786454 3.41015625 24.27734375 C3.37156998 23.11041489 3.3329837 21.94348602 3.29322815 20.74119568 C3.09480034 15.27674343 2.80475312 9.95370582 1.875 4.5625 C0.56147977 4.87068356 -0.75079572 5.18417665 -2.0625 5.5 C-2.79339844 5.67402344 -3.52429688 5.84804687 -4.27734375 6.02734375 C-6.12469898 6.40137569 -6.12469898 6.40137569 -7.125 7.5625 C-7.24830088 9.3721774 -7.30290183 11.18657837 -7.33032227 13.00024414 C-7.35026749 14.16137222 -7.37021271 15.32250031 -7.39076233 16.51881409 C-7.41583107 18.41409096 -7.41583107 18.41409096 -7.44140625 20.34765625 C-7.46218735 21.63361191 -7.48296844 22.91956757 -7.50437927 24.24449158 C-7.55966176 27.66885904 -7.60904361 31.0932875 -7.65722656 34.51776123 C-7.70739665 38.00994314 -7.7631061 41.5020361 -7.81835938 44.99414062 C-7.9260164 51.85018333 -8.02744449 58.70630633 -8.125 65.5625 C-10.77090014 65.58934679 -13.41653096 65.60926357 -16.0625 65.625 C-16.81724609 65.63337891 -17.57199219 65.64175781 -18.34960938 65.65039062 C-20.27494313 65.65902441 -22.20035581 65.61474333 -24.125 65.5625 C-25.86800973 63.81949027 -25.29506086 61.40554811 -25.33032227 59.03295898 C-25.35026749 57.85181015 -25.37021271 56.67066132 -25.39076233 55.45372009 C-25.40747482 54.1683284 -25.42418732 52.88293671 -25.44140625 51.55859375 C-25.46218735 50.25044205 -25.48296844 48.94229034 -25.50437927 47.59449768 C-25.559663 44.11094553 -25.60904431 40.6273334 -25.65722656 37.14367676 C-25.70739574 33.5911727 -25.76310567 30.0387561 -25.81835938 26.48632812 C-25.92601791 19.51179454 -26.02744567 12.53718202 -26.125 5.5625 C-27.54123216 5.50802953 -28.95808191 5.46949492 -30.375 5.4375 C-31.55835938 5.40269531 -31.55835938 5.40269531 -32.765625 5.3671875 C-35.33231941 5.5796622 -36.9166067 6.27595895 -39.125 7.5625 C-39.785 6.2425 -40.445 4.9225 -41.125 3.5625 C-40.13671875 2.07421875 -40.13671875 2.07421875 -38.125 0.5625 C-35.31372957 0.34535759 -32.7366655 0.27965724 -29.9375 0.375 C-29.18791016 0.38853516 -28.43832031 0.40207031 -27.66601562 0.41601562 C-25.81870233 0.45131461 -23.97175934 0.50512083 -22.125 0.5625 C-21.05982969 3.913188 -21.17535547 6.60308273 -21.54272461 10.08300781 C-22.1147081 16.14127343 -22.33852366 22.15218212 -22.44140625 28.234375 C-22.46218735 29.28280579 -22.48296844 30.33123657 -22.50437927 31.41143799 C-22.56898675 34.71173503 -22.62834009 38.01210128 -22.6875 41.3125 C-22.73077001 43.57031923 -22.77438676 45.82813184 -22.81835938 48.0859375 C-22.92457494 53.57805679 -23.02608342 59.0702446 -23.125 64.5625 C-18.505 64.5625 -13.885 64.5625 -9.125 64.5625 C-9.62 32.8825 -9.62 32.8825 -10.125 0.5625 C-6.91158631 -1.04420684 -3.49541032 -0.26260855 0 0 Z " fill="#DAFEFD" transform="translate(420.125,167.4375)"/>
<path d="M0 0 C3.35634371 1.56629373 5.38341923 3.38341923 8 6 C10.13309192 7.23512079 10.13309192 7.23512079 12 8 C11.401875 8.226875 10.80375 8.45375 10.1875 8.6875 C7.43648112 10.33811133 6.47515363 12.1972081 5 15 C4.34 14.67 3.68 14.34 3 14 C3.66 13.34 4.32 12.68 5 12 C5 11.01 5 10.02 5 9 C3.05990478 7.29467677 3.05990478 7.29467677 1 6 C-4.27632409 11.22577097 -9.54491517 16.45924379 -14.80810547 21.69824219 C-16.60091239 23.48096803 -18.39550699 25.2618979 -20.19189453 27.04101562 C-22.76802899 29.59299438 -25.33774492 32.15128303 -27.90625 34.7109375 C-28.71557983 35.50994476 -29.52490967 36.30895203 -30.35876465 37.13217163 C-31.09953247 37.87278839 -31.84030029 38.61340515 -32.60351562 39.37646484 C-33.26081665 40.02932465 -33.91811768 40.68218445 -34.59533691 41.35482788 C-36.21644289 42.89296024 -36.21644289 42.89296024 -36 45 C-34.61088239 46.4081132 -34.61088239 46.4081132 -32.8125 47.8125 C-29.6981307 50.39099604 -26.82108716 53.09831035 -24 56 C-21.77077045 58.22922955 -19.90864722 58.88128953 -17 60 C-16 61 -16 61 -15.8125 63.4375 C-16 66 -16 66 -18 68 C-20.9375 68 -20.9375 68 -24 67 C-25.05725253 65.02966574 -26.04435012 63.02156704 -27 61 C-29.03603443 58.80953582 -31.16563492 56.77032861 -33.35546875 54.734375 C-35 53 -35 53 -35 51 C-35.66 51 -36.32 51 -37 51 C-37 50.34 -37 49.68 -37 49 C-37.66 49 -38.32 49 -39 49 C-39 48.34 -39 47.68 -39 47 C-39.99 46.67 -40.98 46.34 -42 46 C-41.58448782 41.15235795 -39.33743271 39.19088056 -36 36 C-34.70648717 34.7119757 -33.41597698 33.42093232 -32.12768555 32.12768555 C-21.41845703 21.41845703 -10.70922852 10.70922852 0 0 Z " fill="#29A282" transform="translate(220,85)"/>
<path d="M0 0 C3.33248811 1.45516535 5.55833707 3.29094565 8.1418457 5.83544922 C8.94560135 6.62321747 9.74935699 7.41098572 10.57746887 8.22262573 C11.43491196 9.07470612 12.29235504 9.9267865 13.17578125 10.8046875 C14.06033493 11.68021271 14.94488861 12.55573792 15.85624695 13.45779419 C17.72240348 15.30944972 19.5857662 17.16392459 21.4465332 19.02099609 C23.83355387 21.4026128 26.23634162 23.76762345 28.64332294 26.12904167 C30.93597955 28.38487054 33.21095647 30.65839763 35.48828125 32.9296875 C36.78962761 34.20173538 36.78962761 34.20173538 38.11726379 35.4994812 C39.29925606 36.69059006 39.29925606 36.69059006 40.50512695 37.90576172 C41.20587845 38.60144257 41.90662994 39.29712341 42.62861633 40.0138855 C44 42 44 42 43.83952332 44.08401489 C42.64533609 46.80942454 41.00225577 48.81572098 39 51 C38.34 51 37.68 51 37 51 C37 51.66 37 52.32 37 53 C36.34 53 35.68 53 35 53 C35 53.66 35 54.32 35 55 C34.34 55 33.68 55 33 55 C32.7525 55.556875 32.505 56.11375 32.25 56.6875 C30.77897833 59.4088901 28.96697719 61.61578522 27 64 C25.99426222 65.32901064 24.99204592 66.66073801 24 68 C22.02 67.67 20.04 67.34 18 67 C17.3125 64.6875 17.3125 64.6875 17 62 C18.48448805 59.77326792 19.63817525 59.11028883 22.19140625 58.33203125 C26.18581304 56.43760466 28.77959414 53.53977134 31.8125 50.375 C32.40998047 49.76398438 33.00746094 49.15296875 33.62304688 48.5234375 C35.08895106 47.02235161 36.54542993 45.51207138 38 44 C33.82222235 39.01407125 29.46872723 34.33295716 24.8515625 29.75390625 C24.19417084 29.09792953 23.53677917 28.44195282 22.85946655 27.76609802 C20.78367138 25.69584732 18.70440573 23.62912349 16.625 21.5625 C15.2067992 20.14932138 13.78882824 18.73591206 12.37109375 17.32226562 C8.91671223 13.87883935 5.4592163 10.43856901 2 7 C-2.07964281 8.30155006 -2.07964281 8.30155006 -6 10 C-6.66 9.67 -7.32 9.34 -8 9 C-8 8.34 -8 7.68 -8 7 C-7.34 7 -6.68 7 -6 7 C-5.7525 6.401875 -5.505 5.80375 -5.25 5.1875 C-3.83629988 2.71352479 -2.34944617 1.56629745 0 0 Z " fill="#2AA487" transform="translate(305,85)"/>
<path d="M0 0 C1.15680267 0.00424484 1.15680267 0.00424484 2.3369751 0.00857544 C4.79251832 0.01974237 7.2476926 0.04484021 9.703125 0.0703125 C11.37108847 0.08034682 13.03905768 0.08947189 14.70703125 0.09765625 C18.78920397 0.11967025 22.871102 0.15417583 26.953125 0.1953125 C28.68719348 3.41772267 29.14817624 5.16349753 28.640625 8.8203125 C28.54136719 9.59632813 28.44210938 10.37234375 28.33984375 11.171875 C27.953125 13.1953125 27.953125 13.1953125 26.953125 15.1953125 C23.95296588 16.19536554 21.97888744 16.31106835 18.84765625 16.29296875 C17.86474609 16.28974609 16.88183594 16.28652344 15.86914062 16.28320312 C14.84498047 16.27482422 13.82082031 16.26644531 12.765625 16.2578125 C11.21198242 16.25104492 11.21198242 16.25104492 9.62695312 16.24414062 C7.0689858 16.23235276 4.51104814 16.21441732 1.953125 16.1953125 C2.283125 21.1453125 2.613125 26.0953125 2.953125 31.1953125 C4.33886719 31.22109375 5.72460938 31.246875 7.15234375 31.2734375 C8.9818019 31.32972852 10.81122776 31.38707563 12.640625 31.4453125 C13.55263672 31.45949219 14.46464844 31.47367188 15.40429688 31.48828125 C19.72503884 31.64539914 22.30320957 31.79004204 26.03515625 34.1171875 C29.46099606 37.8290954 29.08468577 41.010508 29.05078125 45.828125 C29.0493663 46.57996063 29.04795135 47.33179626 29.04649353 48.10641479 C29.04088965 50.5110876 29.02833657 52.91566777 29.015625 55.3203125 C29.0106105 56.94921741 29.0060475 58.57812377 29.00195312 60.20703125 C28.99091897 64.20316077 28.97365179 68.19922092 28.953125 72.1953125 C28.623125 72.1953125 28.293125 72.1953125 27.953125 72.1953125 C27.923396 70.71937622 27.923396 70.71937622 27.89306641 69.21362305 C27.81698513 65.56248411 27.728272 61.91174241 27.63574219 58.26098633 C27.59746279 56.68098799 27.56260803 55.10090281 27.53125 53.52075195 C27.48557624 51.24919605 27.42758716 48.97823741 27.3671875 46.70703125 C27.35563629 46.00068039 27.34408508 45.29432953 27.33218384 44.5665741 C27.22241452 40.91789857 27.03170136 39.31317704 24.953125 36.1953125 C22.43927241 35.68570559 22.43927241 35.68570559 19.5078125 35.68359375 C18.43144531 35.64814453 17.35507813 35.61269531 16.24609375 35.57617188 C15.11816406 35.55361328 13.99023438 35.53105469 12.828125 35.5078125 C11.69246094 35.47365234 10.55679688 35.43949219 9.38671875 35.40429688 C6.57561921 35.32161748 3.76483947 35.25253313 0.953125 35.1953125 C0.78862721 33.46761245 0.62629388 31.73970626 0.46484375 30.01171875 C0.37420654 29.04951416 0.28356934 28.08730957 0.19018555 27.09594727 C-0.13809055 23.07921374 -0.2387376 19.22442711 -0.046875 15.1953125 C2.54238831 12.60604919 3.98017779 12.82133207 7.578125 12.5703125 C8.58101562 12.49554688 9.58390625 12.42078125 10.6171875 12.34375 C11.77347656 12.27027344 11.77347656 12.27027344 12.953125 12.1953125 C12.953125 12.5253125 12.953125 12.8553125 12.953125 13.1953125 C14.43219392 13.22220466 15.91139983 13.24165871 17.390625 13.2578125 C18.62619141 13.27521484 18.62619141 13.27521484 19.88671875 13.29296875 C21.94476438 13.42798598 21.94476438 13.42798598 22.953125 12.1953125 C23.18387582 10.84784166 23.36465563 9.49153685 23.515625 8.1328125 C23.66 6.8334375 23.804375 5.5340625 23.953125 4.1953125 C19.73501003 4.26418745 15.51785495 4.35214988 11.30053711 4.45776367 C9.86607872 4.49100251 8.43148987 4.51903785 6.99682617 4.54174805 C4.93351693 4.57531521 2.87140197 4.62762663 0.80859375 4.68359375 C-1.05309448 4.72286987 -1.05309448 4.72286987 -2.95239258 4.76293945 C-6.31423475 5.23266904 -6.92985394 5.72689139 -9.046875 8.1953125 C-10.036875 8.1953125 -11.026875 8.1953125 -12.046875 8.1953125 C-12.046875 17.1053125 -12.046875 26.0153125 -12.046875 35.1953125 C-12.706875 35.1953125 -13.366875 35.1953125 -14.046875 35.1953125 C-14.10500673 30.63286613 -14.14051622 26.07051526 -14.171875 21.5078125 C-14.18863281 20.21423828 -14.20539063 18.92066406 -14.22265625 17.58789062 C-14.22910156 16.34072266 -14.23554687 15.09355469 -14.2421875 13.80859375 C-14.25266113 12.66173096 -14.26313477 11.51486816 -14.27392578 10.33325195 C-14.04149766 7.1209954 -13.61773485 5.00210133 -12.046875 2.1953125 C-8.56076277 -0.59924406 -4.25640086 -0.05898081 0 0 Z " fill="#D7FDF8" transform="translate(114.046875,167.8046875)"/>
<path d="M0 0 C5.61 0 11.22 0 17 0 C18.00000429 4.00001715 17.80688405 6.05523353 17 10 C16.34 10 15.68 10 15 10 C15 7.69 15 5.38 15 3 C11.04 3 7.08 3 3 3 C3 26.76 3 50.52 3 75 C6.96 75 10.92 75 15 75 C15 53.88 15 32.76 15 11 C15.33 11 15.66 11 16 11 C16.33 33.11 16.66 55.22 17 78 C13.95017742 79.52491129 10.77877461 79.14361434 7.4375 79.125 C6.73947266 79.12886719 6.04144531 79.13273437 5.32226562 79.13671875 C0.12663994 79.12663994 0.12663994 79.12663994 -1 78 C-1.04063832 76.33382885 -1.042721 74.66611905 -1 73 C-0.67 73 -0.34 73 0 73 C0.02320776 64.62868031 0.04095803 56.25737414 0.05181217 47.8860302 C0.05702257 43.99855281 0.06408665 40.1110975 0.07543945 36.22363281 C0.08633395 32.46945098 0.09229072 28.71529033 0.09487724 24.9610939 C0.09671968 23.53143099 0.10031746 22.10176918 0.10573006 20.67211533 C0.11302753 18.66407154 0.1134088 16.65600627 0.11352539 14.64794922 C0.115746 13.50655487 0.11796661 12.36516052 0.12025452 11.18917847 C0.06975382 7.96793619 0.06975382 7.96793619 -0.56959534 4.70950317 C-1 2 -1 2 0 0 Z " fill="#D7FEFD" transform="translate(255,168)"/>
<path d="M0 0 C1.18810776 0.03381271 2.37621552 0.06762543 3.60032654 0.10246277 C5.52691856 0.18189873 5.52691856 0.18189873 7.49243164 0.26293945 C8.8104628 0.30683304 10.12849396 0.35072662 11.48646545 0.39595032 C14.27690737 0.48996029 17.06668923 0.59452404 19.85644531 0.70703125 C23.42814635 0.85062284 27.00016972 0.97236032 30.57291317 1.08671856 C33.98396728 1.19799421 37.39438375 1.32457327 40.80493164 1.45043945 C42.72848732 1.51469368 42.72848732 1.51469368 44.69090271 1.58024597 C45.88216263 1.62981949 47.07342255 1.67939301 48.30078125 1.73046875 C49.34874374 1.77060593 50.39670624 1.8107431 51.47642517 1.85209656 C54.21508789 2.1887207 54.21508789 2.1887207 58.21508789 4.1887207 C58.21508789 26.6287207 58.21508789 49.0687207 58.21508789 72.1887207 C57.88508789 72.1887207 57.55508789 72.1887207 57.21508789 72.1887207 C56.88508789 50.0787207 56.55508789 27.9687207 56.21508789 5.1887207 C54.56508789 5.5187207 52.91508789 5.8487207 51.21508789 6.1887207 C50.72008789 5.6937207 50.72008789 5.6937207 50.21508789 5.1887207 C48.65048474 5.03081464 47.07925128 4.93761943 45.50805664 4.87231445 C44.53360596 4.83033936 43.55915527 4.78836426 42.55517578 4.74511719 C41.51482178 4.70588135 40.47446777 4.66664551 39.40258789 4.6262207 C37.83528931 4.56253296 37.83528931 4.56253296 36.23632812 4.49755859 C29.22523703 4.2264958 22.23154899 4.05291823 15.21508789 4.1887207 C15.21508789 5.1787207 15.21508789 6.1687207 15.21508789 7.1887207 C12.20477045 8.12295715 11.34858522 8.23321981 8.21508789 7.1887207 C8.21508789 6.5287207 8.21508789 5.8687207 8.21508789 5.1887207 C1.28508789 4.6937207 1.28508789 4.6937207 -5.78491211 4.1887207 C-6.11491211 5.8387207 -6.44491211 7.4887207 -6.78491211 9.1887207 C-7.11491211 9.1887207 -7.44491211 9.1887207 -7.78491211 9.1887207 C-8.47241211 6.3762207 -8.47241211 6.3762207 -8.78491211 3.1887207 C-6.43220277 -0.35938534 -4.03201132 -0.13922742 0 0 Z " fill="#C8FEFA" transform="translate(318.784912109375,166.811279296875)"/>
<path d="M0 0 C2.31 1.98 4.62 3.96 7 6 C5.96483052 10.14067791 4.83392052 11.90845034 2 15 C1.34 15 0.68 15 0 15 C0 15.66 0 16.32 0 17 C-0.66 17 -1.32 17 -2 17 C-2 17.66 -2 18.32 -2 19 C-2.66 19 -3.32 19 -4 19 C-4.37125 19.8353125 -4.37125 19.8353125 -4.75 20.6875 C-6.22102167 23.4088901 -8.03302281 25.61578522 -10 28 C-11.00573778 29.32901064 -12.00795408 30.66073801 -13 32 C-14.98 31.67 -16.96 31.34 -19 31 C-19.6875 28.6875 -19.6875 28.6875 -20 26 C-18.515696 23.77354399 -17.35254603 23.10977857 -14.8046875 22.31640625 C-10.86709386 20.46825993 -8.27033999 17.70642551 -5.25 14.625 C-4.66089844 14.0475 -4.07179688 13.47 -3.46484375 12.875 C-2.62373047 12.02808594 -2.62373047 12.02808594 -1.765625 11.1640625 C-1.25805664 10.65311035 -0.75048828 10.1421582 -0.22753906 9.61572266 C1.2402454 7.68378201 1.76188741 6.41736041 2 4 C1.34 2.68 0.68 1.36 0 0 Z " fill="#2BAD8C" transform="translate(342,121)"/>
<path d="M0 0 C3.63933127 1.81966563 5.22134249 3.22134249 8 6 C10.13309192 7.23512079 10.13309192 7.23512079 12 8 C11.401875 8.226875 10.80375 8.45375 10.1875 8.6875 C7.43648112 10.33811133 6.47515363 12.1972081 5 15 C4.34 14.67 3.68 14.34 3 14 C3.66 13.34 4.32 12.68 5 12 C5 11.01 5 10.02 5 9 C3.68 8.01 2.36 7.02 1 6 C-6.59 13.59 -14.18 21.18 -22 29 C-22 28.01 -22 27.02 -22 26 C-22.66 25.34 -23.32 24.68 -24 24 C-16.08 16.08 -8.16 8.16 0 0 Z " fill="#2CA186" transform="translate(220,85)"/>
<path d="M0 0 C2.04055005 0.07065617 4.08334257 0.08421976 6.125 0.0625 C7.22070312 0.05347656 8.31640625 0.04445312 9.4453125 0.03515625 C10.28835937 0.02355469 11.13140625 0.01195312 12 0 C11.67 0.99 11.34 1.98 11 3 C3.74 3 -3.52 3 -11 3 C-10.67 7.95 -10.34 12.9 -10 18 C-8.61425781 18.02578125 -7.22851562 18.0515625 -5.80078125 18.078125 C-3.9713231 18.13441602 -2.14189724 18.19176313 -0.3125 18.25 C0.59951172 18.26417969 1.51152344 18.27835938 2.45117188 18.29296875 C6.77191384 18.45008664 9.35008457 18.59472954 13.08203125 20.921875 C16.50787106 24.6337829 16.13156077 27.8151955 16.09765625 32.6328125 C16.0962413 33.38464813 16.09482635 34.13648376 16.09336853 34.91110229 C16.08776465 37.3157751 16.07521157 39.72035527 16.0625 42.125 C16.0574855 43.75390491 16.0529225 45.38281127 16.04882812 47.01171875 C16.03779397 51.00784827 16.02052679 55.00390842 16 59 C15.67 59 15.34 59 15 59 C14.98018066 58.01604248 14.96036133 57.03208496 14.93994141 56.01831055 C14.86386013 52.36717161 14.775147 48.71642991 14.68261719 45.06567383 C14.64433779 43.48567549 14.60948303 41.90559031 14.578125 40.32543945 C14.53245124 38.05388355 14.47446216 35.78292491 14.4140625 33.51171875 C14.40251129 32.80536789 14.39096008 32.09901703 14.37905884 31.3712616 C14.26928952 27.72258607 14.07857636 26.11786454 12 23 C9.48614741 22.49039309 9.48614741 22.49039309 6.5546875 22.48828125 C4.94013672 22.43510742 4.94013672 22.43510742 3.29296875 22.38085938 C2.16503906 22.35830078 1.03710938 22.33574219 -0.125 22.3125 C-1.26066406 22.27833984 -2.39632812 22.24417969 -3.56640625 22.20898438 C-6.37750579 22.12630498 -9.18828553 22.05722063 -12 22 C-12.16449779 20.27229995 -12.32683112 18.54439376 -12.48828125 16.81640625 C-12.57891846 15.85420166 -12.66955566 14.89199707 -12.76293945 13.90063477 C-13.09121555 9.88390124 -13.1918626 6.02911461 -13 2 C-10.63546807 -0.36453193 -9.74130071 -0.36652704 -6.5 -0.6875 C-5.7059375 -0.77386719 -4.911875 -0.86023438 -4.09375 -0.94921875 C-2 -1 -2 -1 0 0 Z " fill="#D5FEFB" transform="translate(127,181)"/>
<path d="M0 0 C0.66 0.33 1.32 0.66 2 1 C1.67 1.99 1.34 2.98 1 4 C1.66 4 2.32 4 3 4 C4.37719727 5.3984375 4.37719727 5.3984375 6.00390625 7.375 C10.38242943 12.52433397 15.13686053 17.24681932 19.9375 22 C20.81212891 22.87011719 21.68675781 23.74023438 22.58789062 24.63671875 C24.72297449 26.76013549 26.86037205 28.88116378 29 31 C28.01 31.66 27.02 32.32 26 33 C21.99244116 31.40914564 19.40879382 28.58215781 16.5 25.51953125 C15.43792814 24.42731789 14.37541488 23.3355336 13.3125 22.24414062 C11.64827902 20.52396909 9.98826731 18.80020443 8.3359375 17.06860352 C6.73497825 15.39532605 5.1189165 13.73791456 3.5 12.08203125 C3.00822266 11.55817337 2.51644531 11.03431549 2.00976562 10.49458313 C0.46977473 8.87380538 0.46977473 8.87380538 -2 7 C-4.29933973 7.03281797 -4.29933973 7.03281797 -6 8 C-6 7.01 -6 6.02 -6 5 C-5.195625 4.731875 -4.39125 4.46375 -3.5625 4.1875 C-2.716875 3.795625 -1.87125 3.40375 -1 3 C-0.67 2.01 -0.34 1.02 0 0 Z " fill="#2AA285" transform="translate(233,94)"/>
<path d="M0 0 C5.1903462 1.28420937 8.05775862 3.63028555 11.5625 7.5 C14.75650435 10.99668934 17.39683734 13.51145531 22 15 C23 16 23 16 23.25 18.4375 C23.12625 19.7059375 23.12625 19.7059375 23 21 C20 23 20 23 17.625 23.125 C14.11638241 21.62130675 13.41989872 19.64993965 11.6015625 16.39453125 C8.9794911 12.47421475 5.47387177 9.47093646 2.01171875 6.296875 C0 4 0 4 0 0 Z " fill="#26C297" transform="translate(214,130)"/>
<path d="M0 0 C0.33 0.99 0.66 1.98 1 3 C1.85658203 3.17402344 1.85658203 3.17402344 2.73046875 3.3515625 C6.63273617 4.46649605 9.01182045 7.93770232 11.66992188 10.875 C15.22511787 14.63636719 18.30003446 16.14399903 23 18 C24.125 19.9375 24.125 19.9375 24 22 C22.5625 24.25 22.5625 24.25 21 26 C16.25 25.25 16.25 25.25 14 23 C13.58621094 21.84564453 13.58621094 21.84564453 13.1640625 20.66796875 C11.75433083 17.43693946 9.940663 15.71119128 7.375 13.3125 C5.88184937 11.91119933 4.41410609 10.48102881 3 9 C3 8.34 3 7.68 3 7 C1.68 6.34 0.36 5.68 -1 5 C-0.67 3.35 -0.34 1.7 0 0 Z " fill="#29A586" transform="translate(265,127)"/>
<path d="M0 0 C2.76137868 2.76137868 2.29249649 4.42789581 2.36645508 8.2980957 C2.38131958 8.94384552 2.39618408 9.58959534 2.41149902 10.25491333 C2.45777288 12.3951385 2.48931885 14.53527306 2.51953125 16.67578125 C2.54586158 18.16310866 2.57261602 19.65042862 2.59977722 21.13774109 C2.65426099 24.25899737 2.70102487 27.3802594 2.74291992 30.50170898 C2.79751734 34.49685998 2.87501342 38.49119148 2.95886707 42.48582172 C3.02017494 45.55951243 3.06727005 48.63330074 3.11032677 51.70729637 C3.13302871 53.17973237 3.16058462 54.65210197 3.19312477 56.12435341 C3.23698002 58.18757169 3.26117247 60.25014632 3.28051758 62.3137207 C3.2989119 63.48683304 3.31730621 64.65994537 3.33625793 65.86860657 C2.96170109 69.35665761 2.09056131 71.21087168 0 74 C-2.2831244 75.1415622 -3.63479305 75.15334372 -6.17431641 75.20532227 C-7.03505768 75.22526749 -7.89579895 75.24521271 -8.78262329 75.26576233 C-9.71287323 75.28247482 -10.64312317 75.29918732 -11.6015625 75.31640625 C-13.02896255 75.3475779 -13.02896255 75.3475779 -14.48519897 75.37937927 C-17.53172432 75.44488133 -20.57833743 75.5037628 -23.625 75.5625 C-25.68750916 75.60568459 -27.75000937 75.64929886 -29.8125 75.69335938 C-34.87490954 75.8005634 -39.93740755 75.90182902 -45 76 C-45.33 75.01 -45.66 74.02 -46 73 C-45.34 72.01 -44.68 71.02 -44 70 C-42.0625 70.3125 -42.0625 70.3125 -40 71 C-39.67 71.99 -39.34 72.98 -39 74 C-34.08804631 73.95583049 -29.17737609 73.88598243 -24.26611328 73.79248047 C-22.59596989 73.76428282 -20.92569335 73.74306221 -19.25537109 73.72900391 C-16.85184628 73.70755663 -14.44992017 73.66090155 -12.046875 73.609375 C-10.9294693 73.60753204 -10.9294693 73.60753204 -9.78948975 73.60565186 C-6.54736134 73.51437813 -4.44430974 73.32732386 -1.79919434 71.37866211 C0.58496638 68.22663309 0.4836478 66.32515696 0.45410156 62.39550781 C0.45468567 61.74143448 0.45526978 61.08736115 0.45587158 60.41346741 C0.45309299 58.25947306 0.42201548 56.10687644 0.390625 53.953125 C0.38316172 52.45669307 0.37746919 50.96025136 0.37347412 49.46380615 C0.35822439 45.5311571 0.31894912 41.59910193 0.2746582 37.66668701 C0.23369074 33.65157098 0.21546001 29.63635869 0.1953125 25.62109375 C0.15245348 17.74712374 0.08421103 9.87363581 0 2 C-0.66 1.67 -1.32 1.34 -2 1 C-1.34 0.67 -0.68 0.34 0 0 Z " fill="#E7FEFE" transform="translate(374,171)"/>
<path d="M0 0 C1.07314453 0.16242188 1.07314453 0.16242188 2.16796875 0.328125 C0.30815824 5.15670135 -3.71486022 8.27887021 -7.40039062 11.73046875 C-10.80907547 15.01726474 -12.7740324 18.00443935 -14.83203125 22.328125 C-17.33203125 23.390625 -17.33203125 23.390625 -19.83203125 23.328125 C-21.70703125 22.203125 -21.70703125 22.203125 -22.83203125 20.328125 C-23.01953125 17.890625 -23.01953125 17.890625 -21.83203125 15.328125 C-19.99898718 14.44554823 -18.15884405 13.57525373 -16.2890625 12.7734375 C-12.4955006 10.5419305 -9.67587418 7.30533101 -6.77783203 4.03662109 C-4.52282022 1.59486224 -3.36835857 0.39026499 0 0 Z " fill="#2EA587" transform="translate(260.83203125,129.671875)"/>
<path d="M0 0 C1.4783226 2.95664519 1.06032783 5.74229737 1 9 C0.01 8.67 -0.98 8.34 -2 8 C-2.33 6.68 -2.66 5.36 -3 4 C-8.28 4 -13.56 4 -19 4 C-19.61788398 9.22002951 -19.61788398 9.22002951 -20.22631836 14.44116211 C-20.88888889 19.88888889 -20.88888889 19.88888889 -22 21 C-22.23024542 22.97353214 -22.45948954 24.94719656 -22.6796875 26.921875 C-23.07311964 29.47438595 -23.90663586 31.66748985 -25 34 C-25.66 34 -26.32 34 -27 34 C-26.54208057 29.23763789 -25.73620973 24.81273349 -24.5 20.1875 C-23.18780018 15.1922659 -22.5582863 10.43009 -22.30859375 5.27734375 C-22 3 -22 3 -20 0 C-17.30539203 -0.41455507 -14.8321752 -0.64937933 -12.125 -0.75 C-11.40441406 -0.79253906 -10.68382812 -0.83507812 -9.94140625 -0.87890625 C-2.97374994 -1.2253643 -2.97374994 -1.2253643 0 0 Z " fill="#CEFEFC" transform="translate(184,168)"/>
<path d="M0 0 C2 3 2 3 2.875 5.0625 C4.26076436 7.44909418 5.51357906 7.91219084 8 9 C8.66 9.66 9.32 10.32 10 11 C12.4628378 11.18737755 14.81100438 11.25578315 17.2734375 11.23046875 C17.99359039 11.23001053 18.71374329 11.22955231 19.45571899 11.2290802 C20.98058721 11.22605725 22.50545231 11.21816962 24.03027344 11.20581055 C26.35883598 11.18762623 28.68699906 11.18530041 31.015625 11.18554688 C32.49739926 11.18062866 33.97917082 11.17479902 35.4609375 11.16796875 C36.15585297 11.16685593 36.85076843 11.1657431 37.56674194 11.16459656 C40.85208213 11.13254409 43.85718127 11.00628418 47 10 C45.96875 11.46801758 45.96875 11.46801758 44 13 C41.42529578 13.33292941 39.07967487 13.48852332 36.5 13.51171875 C35.75559662 13.52976059 35.01119324 13.54780243 34.24423218 13.56639099 C31.82953907 13.62113558 29.41508427 13.65484194 27 13.6875 C25.35365831 13.71952429 23.70733607 13.75256475 22.06103516 13.78662109 C17.37422461 13.87844746 12.68733228 13.94207643 8 14 C6.83694336 14.01659668 5.67388672 14.03319336 4.47558594 14.05029297 C1.77531246 14.0857193 -0.92454002 14.11100371 -3.625 14.125 C-4.37394531 14.12975342 -5.12289062 14.13450684 -5.89453125 14.1394043 C-10.75290711 14.12354645 -10.75290711 14.12354645 -13 13 C-13 10.69 -13 8.38 -13 6 C-12.67 7.32 -12.34 8.64 -12 10 C-7.61414671 10.70173653 -3.44209357 11.10834375 1 11 C0.67 10.01 0.34 9.02 0 8 C-0.12781786 5.32605036 -0.04391871 2.67904143 0 0 Z " fill="#E1FEFD" transform="translate(197,233)"/>
<path d="M0 0 C-0.57808208 3.38157323 -1.60466554 4.94429775 -4.08984375 7.27734375 C-4.70923828 7.87353516 -5.32863281 8.46972656 -5.96679688 9.08398438 C-7.27657679 10.31587847 -8.58647192 11.54765007 -9.89648438 12.77929688 C-13.29154671 16.04744099 -15.47387474 18.44678012 -17 23 C-19.4375 24 -19.4375 24 -22 24 C-23.875 22.875 -23.875 22.875 -25 21 C-25.1875 18.625 -25.1875 18.625 -24 16 C-20.77120271 13.38549825 -17.31300629 11.43766876 -13.375 10.125 C-10.19812996 8.62016682 -8.57481343 6.39273497 -6.4296875 3.65625 C-4.53618151 1.46268022 -2.99418564 0 0 0 Z " fill="#27BF96" transform="translate(315,129)"/>
<path d="M0 0 C3.96 0 7.92 0 12 0 C12 0.99 12 1.98 12 3 C12.99 3 13.98 3 15 3 C14.93433838 3.88816406 14.86867676 4.77632812 14.80102539 5.69140625 C13.97017469 17.78871448 13.67965338 29.87849351 13.4375 42 C13.39418062 44.04688138 13.35056274 46.09375646 13.30664062 48.140625 C13.2009944 53.09368435 13.09935771 58.04681068 13 63 C12.67 63 12.34 63 12 63 C11.97716446 62.32650009 11.95432892 61.65300018 11.93080139 60.95909119 C11.69188588 53.93456087 11.44768223 46.91022838 11.20043945 39.88598633 C11.10891928 37.26624151 11.01873695 34.64644958 10.92993164 32.02661133 C10.80188019 28.2558895 10.66898165 24.48536454 10.53515625 20.71484375 C10.49656998 19.54791489 10.4579837 18.38098602 10.41822815 17.17869568 C10.21980034 11.71424343 9.92975312 6.39120582 9 1 C6.03 1.66 3.06 2.32 0 3 C0 2.01 0 1.02 0 0 Z " fill="#DCFEFB" transform="translate(413,171)"/>
<path d="M0 0 C0.7924411 0.00045822 1.5848822 0.00091644 2.40133667 0.00138855 C4.07405091 0.004407 5.74676243 0.01228114 7.41943359 0.0246582 C9.98935822 0.04294861 12.55892325 0.04516762 15.12890625 0.04492188 C16.7526073 0.04983587 18.3763059 0.05566368 20 0.0625 C21.15932541 0.06416924 21.15932541 0.06416924 22.34207153 0.06587219 C27.75112756 0.11440881 27.75112756 0.11440881 28.8671875 1.23046875 C28.90799533 3.23005239 28.90973106 5.23092129 28.8671875 7.23046875 C28.2071875 7.56046875 27.5471875 7.89046875 26.8671875 8.23046875 C26.3721875 5.75546875 26.3721875 5.75546875 25.8671875 3.23046875 C21.25876238 3.49248878 16.65063723 3.75914543 12.04272461 4.0300293 C10.47639161 4.1214621 8.90998517 4.21164608 7.34350586 4.30053711 C5.08687013 4.42881205 2.83054001 4.56163323 0.57421875 4.6953125 C-0.12180954 4.73389877 -0.81783783 4.77248505 -1.53495789 4.8122406 C-5.14724587 5.03087916 -8.60511915 5.41500704 -12.1328125 6.23046875 C-11.8203125 4.35546875 -11.8203125 4.35546875 -11.1328125 2.23046875 C-7.35740642 -0.28646863 -4.36952139 -0.04083745 0 0 Z " fill="#CAFDF2" transform="translate(217.1328125,167.76953125)"/>
<path d="M0 0 C0.99 0.33 1.98 0.66 3 1 C3 22.12 3 43.24 3 65 C2.01 65.495 2.01 65.495 1 66 C0.98969254 65.22992111 0.97938507 64.45984222 0.96876526 63.66642761 C0.87082273 56.41222643 0.76831289 49.15811104 0.66066074 41.90404797 C0.60547604 38.17458726 0.55206319 34.44511864 0.50268555 30.71557617 C0.45497626 27.11695357 0.40263113 23.51842563 0.34705925 19.91991615 C0.32666543 18.54641385 0.30794745 17.17288562 0.29092598 15.79933739 C0.26681643 13.87682515 0.23621762 11.95439759 0.20532227 10.03198242 C0.18977798 8.93722092 0.1742337 7.84245941 0.15821838 6.71452332 C0.11264344 3.90377896 0.11264344 3.90377896 -1 1 C-0.67 0.67 -0.34 0.34 0 0 Z " fill="#D7FEFE" transform="translate(332,174)"/>
<path d="M0 0 C1.48831242 0.00667405 2.97660807 0.01863442 4.46484375 0.03515625 C5.22345703 0.03966797 5.98207031 0.04417969 6.76367188 0.04882812 C8.64326246 0.06064945 10.52281274 0.07858547 12.40234375 0.09765625 C8.12387543 2.94996847 4.50671275 2.69991321 -0.59765625 3.09765625 C-0.59765625 6.39765625 -0.59765625 9.69765625 -0.59765625 13.09765625 C1.17351562 13.17113281 1.17351562 13.17113281 2.98046875 13.24609375 C4.53778312 13.32114504 6.09507366 13.39669186 7.65234375 13.47265625 C8.42964844 13.50359375 9.20695312 13.53453125 10.0078125 13.56640625 C10.76191406 13.60507813 11.51601562 13.64375 12.29296875 13.68359375 C12.98422852 13.71501465 13.67548828 13.74643555 14.38769531 13.77880859 C16.6924254 14.14356592 18.37530122 14.96489719 20.40234375 16.09765625 C16.42319216 16.12652609 12.44406722 16.14441031 8.46484375 16.16015625 C6.76038086 16.17272461 6.76038086 16.17272461 5.02148438 16.18554688 C3.94189453 16.18876953 2.86230469 16.19199219 1.75 16.1953125 C0.2496521 16.20316772 0.2496521 16.20316772 -1.28100586 16.21118164 C-3.59765625 16.09765625 -3.59765625 16.09765625 -4.59765625 15.09765625 C-4.69674927 12.7660557 -4.72736129 10.43135683 -4.72265625 8.09765625 C-4.72523437 6.81890625 -4.7278125 5.54015625 -4.73046875 4.22265625 C-4.54139165 -0.22621668 -4.54695191 0.12342432 0 0 Z " fill="#BFFEF5" transform="translate(103.59765625,230.90234375)"/>
<path d="M0 0 C4.26121515 0.47346835 6.18373138 2.96139438 9 6 C11.22922955 8.22922955 13.09135278 8.88128953 16 10 C17 11 17 11 17.1875 13.4375 C17 16 17 16 15 18 C12.0625 18 12.0625 18 9 17 C7.92598385 15.03875312 6.93942486 13.02915769 6 11 C4.18178628 9.1376354 2.29547037 7.41437068 0.328125 5.7109375 C-0.32929688 4.86402344 -0.32929688 4.86402344 -1 4 C-0.703125 1.7890625 -0.703125 1.7890625 0 0 Z " fill="#29B38E" transform="translate(187,135)"/>
<path d="M0 0 C0.44214844 0.65742188 0.88429687 1.31484375 1.33984375 1.9921875 C5.47434834 5.11279742 9.54049774 4.34880294 14.5625 4.125 C16.45933037 4.05611712 18.35649819 3.99583913 20.25390625 3.9453125 C21.09252197 3.90937988 21.9311377 3.87344727 22.79516602 3.83642578 C25 4 25 4 28 6 C28.35644531 7.86352539 28.35644531 7.86352539 28.328125 10.09765625 C28.32296875 10.89880859 28.3178125 11.69996094 28.3125 12.52539062 C28.291875 13.36263672 28.27125 14.19988281 28.25 15.0625 C28.24484375 15.90361328 28.2396875 16.74472656 28.234375 17.61132812 C28.15399235 23.84600765 28.15399235 23.84600765 27 25 C25.00035018 25.08758003 22.9976389 25.10696576 20.99609375 25.09765625 C19.78115234 25.09443359 18.56621094 25.09121094 17.31445312 25.08789062 C16.03505859 25.07951172 14.75566406 25.07113281 13.4375 25.0625 C12.15423828 25.05798828 10.87097656 25.05347656 9.54882812 25.04882812 C6.36583978 25.03699545 3.18294238 25.02051068 0 25 C0 27.64 0 30.28 0 33 C-0.33 33 -0.66 33 -1 33 C-1 30.03 -1 27.06 -1 24 C7.91 24 16.82 24 26 24 C26 18.39 26 12.78 26 7 C23.92138672 7.05220703 23.92138672 7.05220703 21.80078125 7.10546875 C19.97136632 7.1336136 18.14193824 7.16091301 16.3125 7.1875 C14.94448242 7.22520508 14.94448242 7.22520508 13.54882812 7.26367188 C4.93872342 7.35760029 4.93872342 7.35760029 1 4 C0.1875 1.8125 0.1875 1.8125 0 0 Z " fill="#DCFEFE" transform="translate(205,208)"/>
<path d="M0 0 C0.66163651 0.02644089 1.32327301 0.05288177 2.00495911 0.0801239 C4.11491198 0.16778748 6.22312349 0.27696236 8.33203125 0.38671875 C9.76360979 0.44998847 11.19525112 0.51185419 12.62695312 0.57226562 C16.13368704 0.72330778 19.63917945 0.89365439 23.14453125 1.07421875 C23.14453125 1.73421875 23.14453125 2.39421875 23.14453125 3.07421875 C20.50453125 3.40421875 17.86453125 3.73421875 15.14453125 4.07421875 C14.81453125 5.06421875 14.48453125 6.05421875 14.14453125 7.07421875 C11.20063343 8.25177788 10.24499212 8.10770571 7.14453125 7.07421875 C7.14453125 6.41421875 7.14453125 5.75421875 7.14453125 5.07421875 C0.21453125 4.57921875 0.21453125 4.57921875 -6.85546875 4.07421875 C-7.18546875 5.72421875 -7.51546875 7.37421875 -7.85546875 9.07421875 C-8.18546875 9.07421875 -8.51546875 9.07421875 -8.85546875 9.07421875 C-9.54296875 6.26171875 -9.54296875 6.26171875 -9.85546875 3.07421875 C-7.41885746 -0.85071022 -4.25826713 -0.19764109 0 0 Z " fill="#A8FBDD" transform="translate(319.85546875,166.92578125)"/>
<path d="M0 0 C3.875 1.75 3.875 1.75 5 4 C5.41746123 8.79364353 5.59623384 13.59480877 5.77734375 18.40258789 C5.84224975 20.00430564 5.91803318 21.60562095 6.00488281 23.20629883 C6.12991649 25.5187061 6.22088751 27.83030559 6.3046875 30.14453125 C6.34923065 30.85615921 6.3937738 31.56778717 6.43966675 32.30097961 C6.53967282 36.22576319 6.14561751 37.81710135 3.66845703 40.9284668 C-2.88285352 46.01427376 -11.70823852 44.22792217 -19.48950195 43.2824707 C-22.66264814 42.87468106 -25.83187581 42.44520691 -29 42 C-29 41.67 -29 41.34 -29 41 C-19.1 41 -9.2 41 1 41 C1 40.34 1 39.68 1 39 C1.99 38.505 1.99 38.505 3 38 C3.05875981 33.87506128 3.09384938 29.75023232 3.125 25.625 C3.14175781 24.46871094 3.15851563 23.31242187 3.17578125 22.12109375 C3.29674063 10.75267212 3.29674063 10.75267212 0 0 Z " fill="#E6FEFD" transform="translate(137,203)"/>
<path d="M0 0 C1.58206057 0.00667536 3.16410534 0.0186375 4.74609375 0.03515625 C5.55240234 0.03966797 6.35871094 0.04417969 7.18945312 0.04882812 C9.18753131 0.06065107 11.18557158 0.07858711 13.18359375 0.09765625 C13.51359375 1.08765625 13.84359375 2.07765625 14.18359375 3.09765625 C8.90359375 2.76765625 3.62359375 2.43765625 -1.81640625 2.09765625 C-1.81640625 25.19765625 -1.81640625 48.29765625 -1.81640625 72.09765625 C-2.14640625 72.09765625 -2.47640625 72.09765625 -2.81640625 72.09765625 C-2.83186745 70.91827736 -2.83186745 70.91827736 -2.84764099 69.71507263 C-2.94584148 62.28552992 -3.04838675 54.85606561 -3.15574551 47.42665005 C-3.21078089 43.60762193 -3.26416849 39.78858593 -3.3137207 35.96948242 C-3.36165195 32.28007334 -3.41400254 28.59075045 -3.469347 24.90144539 C-3.48964105 23.49775416 -3.50837436 22.09403941 -3.52548027 20.69030571 C-3.54981348 18.71592555 -3.58033938 16.74162471 -3.61108398 14.76733398 C-3.62662827 13.64592514 -3.64217255 12.5245163 -3.65818787 11.36912537 C-3.76719189 7.98880541 -3.76719189 7.98880541 -4.39173889 4.24330139 C-4.53187912 3.20523849 -4.67201935 2.1671756 -4.81640625 1.09765625 C-3.81640625 0.09765625 -3.81640625 0.09765625 0 0 Z " fill="#C4FEFD" transform="translate(283.81640625,167.90234375)"/>
<path d="M0 0 C0 16.83 0 33.66 0 51 C-0.33 51 -0.66 51 -1 51 C-1.33 35.16 -1.66 19.32 -2 3 C-6.29 2.67 -10.58 2.34 -15 2 C-15 7.28 -15 12.56 -15 18 C-15.33 18 -15.66 18 -16 18 C-16.06058594 16.94039062 -16.12117188 15.88078125 -16.18359375 14.7890625 C-16.26800127 13.40102779 -16.35264917 12.01300768 -16.4375 10.625 C-16.47681641 9.92632812 -16.51613281 9.22765625 -16.55664062 8.5078125 C-16.74280134 4.62639508 -16.74280134 4.62639508 -18 1 C-12.6251615 -1.68741925 -6.00925213 0 0 0 Z " fill="#DEFEFE" transform="translate(363,181)"/>
<path d="M0 0 C0.66 0 1.32 0 2 0 C2.99 2.97 3.98 5.94 5 9 C6.40894531 8.97679687 7.81789063 8.95359375 9.26953125 8.9296875 C11.11718221 8.91092962 12.96483889 8.89272944 14.8125 8.875 C15.74126953 8.85824219 16.67003906 8.84148437 17.62695312 8.82421875 C18.51962891 8.81777344 19.41230469 8.81132812 20.33203125 8.8046875 C21.15421143 8.79421387 21.9763916 8.78374023 22.82348633 8.77294922 C25 9 25 9 28 11 C28.34057617 12.87939453 28.34057617 12.87939453 28.29296875 15.1328125 C28.28330078 15.93847656 28.27363281 16.74414062 28.26367188 17.57421875 C28.23853516 18.41597656 28.21339844 19.25773437 28.1875 20.125 C28.16719727 21.39923828 28.16719727 21.39923828 28.14648438 22.69921875 C28.11108219 24.79974837 28.05727401 26.89995293 28 29 C27.34 28.67 26.68 28.34 26 28 C26 23.05 26 18.1 26 13 C23.81310547 12.96132812 23.81310547 12.96132812 21.58203125 12.921875 C19.65882456 12.86558602 17.73564863 12.80823887 15.8125 12.75 C14.85279297 12.73582031 13.89308594 12.72164062 12.90429688 12.70703125 C8.5483546 12.5563066 5.68919503 12.38895165 1.84375 10.21875 C-1.09385963 6.68366045 -0.37126981 4.45523768 0 0 Z " fill="#DAFEFC" transform="translate(101,203)"/>
<path d="M0 0 C0.33 0 0.66 0 1 0 C0.22095672 13.6332574 0.22095672 13.6332574 -2 20 C2.29 20 6.58 20 11 20 C11 18.35 11 16.7 11 15 C11.66 15.33 12.32 15.66 13 16 C12.6517447 18.57708919 12.35205829 20.50758625 10.82421875 22.64453125 C8.23598255 24.56769605 6.31799439 24.39888774 3.125 24.375 C2.09632813 24.38273437 1.06765625 24.39046875 0.0078125 24.3984375 C-3.33572176 23.95552777 -5.25651444 22.9133534 -8 21 C-7.01 20.34 -6.02 19.68 -5 19 C-4.13175403 16.99436621 -4.13175403 16.99436621 -3.61328125 14.6484375 C-3.2894043 13.37226563 -3.2894043 13.37226563 -2.95898438 12.0703125 C-2.74564453 11.18085938 -2.53230469 10.29140625 -2.3125 9.375 C-2.08755859 8.4778125 -1.86261719 7.580625 -1.63085938 6.65625 C-1.0767648 4.43987171 -0.53364905 2.22137355 0 0 Z " fill="#DBFEFD" transform="translate(151,223)"/>
<path d="M0 0 C5.94 0 11.88 0 18 0 C19.7730518 4.4326295 20.40554798 6.43758521 20 11 C18 13 18 13 15.66162109 13.22705078 C14.70852051 13.21657715 13.75541992 13.20610352 12.7734375 13.1953125 C11.2265625 13.18564453 11.2265625 13.18564453 9.6484375 13.17578125 C8.56820312 13.15902344 7.48796875 13.14226562 6.375 13.125 C5.28703125 13.11597656 4.1990625 13.10695312 3.078125 13.09765625 C0.38532351 13.07403518 -2.30736535 13.03816333 -5 13 C-5.33 18.28 -5.66 23.56 -6 29 C-6.33 29 -6.66 29 -7 29 C-7.05380578 26.20807795 -7.09357669 23.4171859 -7.125 20.625 C-7.14175781 19.8309375 -7.15851563 19.036875 -7.17578125 18.21875 C-7.19335473 16.14507985 -7.10335168 14.07116759 -7 12 C-5 10 -5 10 -2.75341797 9.77294922 C-1.84221191 9.78342285 -0.93100586 9.79389648 0.0078125 9.8046875 C0.99394531 9.81113281 1.98007813 9.81757813 2.99609375 9.82421875 C4.54490234 9.84935547 4.54490234 9.84935547 6.125 9.875 C7.16527344 9.88402344 8.20554688 9.89304688 9.27734375 9.90234375 C11.85179092 9.92596253 14.42578212 9.95889851 17 10 C17 7.03 17 4.06 17 1 C11.39 1 5.78 1 0 1 C0 0.67 0 0.34 0 0 Z " fill="#DAFEFB" transform="translate(225,171)"/>
<path d="M0 0 C3.70270486 5.5540573 4.22186294 9.45504337 4 16 C4.99 16.33 5.98 16.66 7 17 C7 18.32 7 19.64 7 21 C8.32 20.67 9.64 20.34 11 20 C10.67 20.66 10.34 21.32 10 22 C9.01 22 8.02 22 7 22 C7 22.99 7 23.98 7 25 C3.7 25 0.4 25 -3 25 C-3 24.67 -3 24.34 -3 24 C-0.36 24 2.28 24 5 24 C3.35 18.39 1.7 12.78 0 7 C-1.32 12.61 -2.64 18.22 -4 24 C-4.33 24 -4.66 24 -5 24 C-4.85966889 22.02043559 -4.7125877 20.04134859 -4.5625 18.0625 C-4.48128906 16.96035156 -4.40007812 15.85820312 -4.31640625 14.72265625 C-4 12 -4 12 -3 11 C-2.63128912 9.34080104 -2.30404678 7.67225729 -2 6 C-1.11111111 1.11111111 -1.11111111 1.11111111 0 0 Z " fill="#D9FEFC" transform="translate(173,192)"/>
<path d="M0 0 C2.27076842 -0.02699725 4.54162821 -0.04639453 6.8125 -0.0625 C8.07707031 -0.07410156 9.34164063 -0.08570313 10.64453125 -0.09765625 C14 0 14 0 17 1 C17.93554688 2.8984375 17.93554688 2.8984375 18.71875 5.375 C19.15767578 6.73044922 19.15767578 6.73044922 19.60546875 8.11328125 C19.90066406 9.06589844 20.19585937 10.01851562 20.5 11 C20.79519531 11.92167969 21.09039062 12.84335938 21.39453125 13.79296875 C21.98230553 15.62879239 22.56569355 17.46602658 23.14453125 19.3046875 C24.3864711 23.21764866 25.68884977 27.10977403 27 31 C26.34 31 25.68 31 25 31 C24.32694982 29.39850114 23.66177773 27.79368971 23 26.1875 C22.62875 25.29417969 22.2575 24.40085938 21.875 23.48046875 C21 21 21 21 21 18 C20.34 18 19.68 18 19 18 C18.731875 16.80375 18.46375 15.6075 18.1875 14.375 C17.24660709 10.61810137 15.96750061 7.36114687 14 4 C11.43106162 2.71553081 9.23423663 2.67022856 6.375 2.4375 C5.37210937 2.35371094 4.36921875 2.26992187 3.3359375 2.18359375 C2.56507813 2.12300781 1.79421875 2.06242188 1 2 C0.67 2.99 0.34 3.98 0 5 C0 3.35 0 1.7 0 0 Z " fill="#DEFEFD" transform="translate(282,170)"/>
<path d="M0 0 C0.33 0 0.66 0 1 0 C1.02464928 5.25105442 1.04283568 10.50207545 1.05493164 15.75317383 C1.05997218 17.54094021 1.06680454 19.32870245 1.07543945 21.11645508 C1.0875173 23.68051168 1.09323094 26.24451397 1.09765625 28.80859375 C1.10281754 29.6127623 1.10797882 30.41693085 1.11329651 31.24546814 C1.11349215 33.16401715 1.06201983 35.08245368 1 37 C0 38 0 38 -3.16015625 38.09765625 C-4.44792969 38.08605469 -5.73570312 38.07445312 -7.0625 38.0625 C-8.35285156 38.05347656 -9.64320313 38.04445312 -10.97265625 38.03515625 C-11.97167969 38.02355469 -12.97070312 38.01195312 -14 38 C-14.625 35.625 -14.625 35.625 -15 33 C-14.34 32.34 -13.68 31.68 -13 31 C-12.34 32.32 -11.68 33.64 -11 35 C-6.05 34.505 -6.05 34.505 -1 34 C-0.67 22.78 -0.34 11.56 0 0 Z " fill="#DCFEFD" transform="translate(295,209)"/>
<path d="M0 0 C0.66 0 1.32 0 2 0 C2 1.32 2 2.64 2 4 C2.99 4.33 3.98 4.66 5 5 C0.38465781 9.06478107 -4.25585812 13.08608295 -9 17 C-9.33 16.34 -9.66 15.68 -10 15 C-11.32 16.32 -12.64 17.64 -14 19 C-14.66 18.67 -15.32 18.34 -16 18 C-15.5153125 17.52578613 -15.030625 17.05157227 -14.53125 16.56298828 C-12.34900263 14.42218263 -10.17444263 12.27373132 -8 10.125 C-7.236875 9.37863281 -6.47375 8.63226563 -5.6875 7.86328125 C-4.965625 7.14785156 -4.24375 6.43242188 -3.5 5.6953125 C-2.8296875 5.03547363 -2.159375 4.37563477 -1.46875 3.69580078 C0.21823007 2.12193881 0.21823007 2.12193881 0 0 Z " fill="#319680" transform="translate(293,95)"/>
<path d="M0 0 C1.48831242 0.00667405 2.97660807 0.01863442 4.46484375 0.03515625 C5.22345703 0.03966797 5.98207031 0.04417969 6.76367188 0.04882812 C8.64326246 0.06064945 10.52281274 0.07858547 12.40234375 0.09765625 C13.43349654 3.36679249 13.36624215 5.95806973 12.96484375 9.34765625 C12.86300781 10.2396875 12.76117188 11.13171875 12.65625 12.05078125 C12.57246094 12.72625 12.48867188 13.40171875 12.40234375 14.09765625 C12.07234375 14.09765625 11.74234375 14.09765625 11.40234375 14.09765625 C11.03977517 12.64138905 10.68754582 11.1825444 10.33984375 9.72265625 C10.04400391 8.50449219 10.04400391 8.50449219 9.7421875 7.26171875 C9.40234375 5.09765625 9.40234375 5.09765625 10.40234375 3.09765625 C6.11234375 3.09765625 1.82234375 3.09765625 -2.59765625 3.09765625 C-2.92765625 4.41765625 -3.25765625 5.73765625 -3.59765625 7.09765625 C-4.58765625 6.43765625 -5.57765625 5.77765625 -6.59765625 5.09765625 C-4.18602933 0.11362729 -4.18602933 0.11362729 0 0 Z " fill="#C3FCF2" transform="translate(385.59765625,167.90234375)"/>
<path d="M0 0 C1.13115234 0.07831055 1.13115234 0.07831055 2.28515625 0.15820312 C4.1487937 0.28795004 6.01194996 0.42457488 7.875 0.5625 C7.875 2.5425 7.875 4.5225 7.875 6.5625 C6.885 6.5625 5.895 6.5625 4.875 6.5625 C4.875 5.5725 4.875 4.5825 4.875 3.5625 C0.915 3.5625 -3.045 3.5625 -7.125 3.5625 C-7.125 4.8825 -7.125 6.2025 -7.125 7.5625 C-8.115 7.5625 -9.105 7.5625 -10.125 7.5625 C-10.125 5.2525 -10.125 2.9425 -10.125 0.5625 C-6.91158631 -1.04420684 -3.49541032 -0.26260855 0 0 Z " fill="#B0F9E8" transform="translate(420.125,167.4375)"/>
<path d="M0 0 C5.61 0 11.22 0 17 0 C18.00000429 4.00001715 17.80688405 6.05523353 17 10 C16.34 10 15.68 10 15 10 C15 7.69 15 5.38 15 3 C11.04 3 7.08 3 3 3 C3 3.66 3 4.32 3 5 C2.01 5 1.02 5 0 5 C-0.33 4.01 -0.66 3.02 -1 2 C-0.67 1.34 -0.34 0.68 0 0 Z " fill="#A5F9E0" transform="translate(255,168)"/>
<path d="M0 0 C1.670625 0.061875 1.670625 0.061875 3.375 0.125 C3.5625 3.5 3.5625 3.5 3.375 7.125 C0.375 9.125 0.375 9.125 -2.3125 8.75 C-3.075625 8.54375 -3.83875 8.3375 -4.625 8.125 C-5.25 5.25 -5.25 5.25 -5.625 2.125 C-3.625 0.125 -3.625 0.125 0 0 Z " fill="#2AC29A" transform="translate(295.625,143.875)"/>
<path d="M0 0 C5.61 0 11.22 0 17 0 C19.17766075 4.35532149 19.03039555 5.46625958 18 10 C17.34 10 16.68 10 16 10 C15.67 8.02 15.34 6.04 15 4 C7.575 3.01 7.575 3.01 0 2 C0 1.34 0 0.68 0 0 Z " fill="#99F7DF" transform="translate(124,168)"/>
<path d="M0 0 C0.66 1.32 1.32 2.64 2 4 C2 3.34 2 2.68 2 2 C2.99 2.33 3.98 2.66 5 3 C4.0479279 4.00596297 3.08812654 5.00461563 2.125 6 C1.59132812 6.556875 1.05765625 7.11375 0.5078125 7.6875 C-1 9 -1 9 -3 9 C-3.66 10.32 -4.32 11.64 -5 13 C-5.33 12.01 -5.66 11.02 -6 10 C-7.65 10.66 -9.3 11.32 -11 12 C-7.49102731 7.81576108 -3.91939465 3.80411834 0 0 Z " fill="#31B795" transform="translate(249,73)"/>
<path d="M0 0 C1.134375 0.020625 2.26875 0.04125 3.4375 0.0625 C4.125 1.8125 4.125 1.8125 4.4375 4.0625 C3 6.3125 3 6.3125 1.4375 8.0625 C-3.4375 7.1875 -3.4375 7.1875 -4.5625 6.0625 C-4.6875 3.5625 -4.6875 3.5625 -4.5625 1.0625 C-3.5625 0.0625 -3.5625 0.0625 0 0 Z " fill="#21D4A2" transform="translate(284.5625,144.9375)"/>
<path d="M0 0 C1.4783226 2.95664519 1.06032783 5.74229737 1 9 C0.01 8.67 -0.98 8.34 -2 8 C-2 6.02 -2 4.04 -2 2 C-7.61 2 -13.22 2 -19 2 C-18.67 1.34 -18.34 0.68 -18 0 C-14.98046875 -0.44921875 -14.98046875 -0.44921875 -11.1875 -0.6875 C-9.94355469 -0.77386719 -8.69960937 -0.86023438 -7.41796875 -0.94921875 C-2.55670344 -1.02144326 -2.55670344 -1.02144326 0 0 Z " fill="#97F9DC" transform="translate(184,168)"/>
<path d="M0 0 C3.11259604 0.345844 4.82872813 0.87379967 7.375 2.75 C9 5 9 5 8.9375 7.5625 C7.97076039 10.076023 7.05615305 11.30143878 5 13 C4.01 12.67 3.02 12.34 2 12 C2.33 9.36 2.66 6.72 3 4 C2.01 3.67 1.02 3.34 0 3 C0 2.01 0 1.02 0 0 Z " fill="#20BF95" transform="translate(315,114)"/>
<path d="M0 0 C1.32 0.33 2.64 0.66 4 1 C4.03738281 1.57105469 4.07476562 2.14210937 4.11328125 2.73046875 C4.62626395 9.05725538 5.86449519 14.97950003 7.4765625 21.1171875 C7.98142019 23.89767238 7.94882527 25.38124224 7 28 C7 27.01 7 26.02 7 25 C6.34 25 5.68 25 5 25 C4.77213542 22.94921875 4.54427083 20.8984375 4.31640625 18.84765625 C4.18113386 16.98859771 4.18113386 16.98859771 3 16 C1.55833967 10.75145534 0.68835557 5.39211864 0 0 Z " fill="#DFFEFC" transform="translate(182,176)"/>
<path d="M0 0 C0.33 0.99 0.66 1.98 1 3 C-0.4375 5.1875 -0.4375 5.1875 -2 7 C-6.75 6.25 -6.75 6.25 -9 4 C-9 3.01 -9 2.02 -9 1 C-5.64919071 -1.10976881 -3.77897651 -1.0497157 0 0 Z " fill="#32C6A0" transform="translate(247,146)"/>
<path d="M0 0 C3.96 0 7.92 0 12 0 C12 0.33 12 0.66 12 1 C8.37 1 4.74 1 1 1 C0.67 12.22 0.34 23.44 0 35 C-0.33 35 -0.66 35 -1 35 C-1.19308926 30.81957933 -1.37167346 26.63886038 -1.53710938 22.45727539 C-1.59534313 21.03620999 -1.6574691 19.61529835 -1.72363281 18.19458008 C-1.81830515 16.1469321 -1.89875229 14.099131 -1.9765625 12.05078125 C-2.02893066 10.82012939 -2.08129883 9.58947754 -2.13525391 8.3215332 C-2 5 -2 5 0 0 Z " fill="#E0FFFD" transform="translate(313,171)"/>
<path d="M0 0 C7.48291572 6.15034169 7.48291572 6.15034169 10 10 C9.01 10 8.02 10 7 10 C6.67 10.99 6.34 11.98 6 13 C3.36 10.36 0.72 7.72 -2 5 C-1.01 4.67 -0.02 4.34 1 4 C0.67 2.68 0.34 1.36 0 0 Z " fill="#2EB394" transform="translate(308,104)"/>
<path d="M0 0 C0.33 0 0.66 0 1 0 C1.02505615 0.73114014 1.0501123 1.46228027 1.07592773 2.21557617 C1.19222641 5.53971417 1.31479928 8.86359241 1.4375 12.1875 C1.47681641 13.33798828 1.51613281 14.48847656 1.55664062 15.67382812 C1.59853516 16.78564453 1.64042969 17.89746094 1.68359375 19.04296875 C1.72025146 20.06414795 1.75690918 21.08532715 1.79467773 22.13745117 C1.92939185 24.99218199 1.92939185 24.99218199 2.59790039 27.6965332 C3 30 3 30 1.75 32.8125 C1.1725 33.534375 0.595 34.25625 0 35 C-0.99 35 -1.98 35 -3 35 C-2.34 34.34 -1.68 33.68 -1 33 C-0.75484303 30.49624532 -0.62666342 28.09450521 -0.5859375 25.5859375 C-0.56657135 24.85629791 -0.5472052 24.12665833 -0.5272522 23.37490845 C-0.46741578 21.04172498 -0.42105577 18.70849227 -0.375 16.375 C-0.33682386 14.79424918 -0.29777235 13.21351924 -0.2578125 11.6328125 C-0.16171122 7.7553777 -0.07769588 3.87784551 0 0 Z " fill="#EBFEFD" transform="translate(424,209)"/>
<path d="M0 0 C2.31 0.33 4.62 0.66 7 1 C7 2.98 7 4.96 7 7 C4.6875 7.6875 4.6875 7.6875 2 8 C0.125 6.875 0.125 6.875 -1 5 C-0.6875 2.3125 -0.6875 2.3125 0 0 Z " fill="#3FC19E" transform="translate(323,145)"/>
<path d="M0 0 C1.45599609 0.11021484 1.45599609 0.11021484 2.94140625 0.22265625 C4.17697266 0.57650391 4.17697266 0.57650391 5.4375 0.9375 C6.0975 2.2575 6.7575 3.5775 7.4375 4.9375 C3.1475 4.6075 -1.1425 4.2775 -5.5625 3.9375 C-5.8925 5.5875 -6.2225 7.2375 -6.5625 8.9375 C-6.8925 8.9375 -7.2225 8.9375 -7.5625 8.9375 C-8.25 6.125 -8.25 6.125 -8.5625 2.9375 C-6.22722227 -0.57346927 -3.98518428 -0.37676176 0 0 Z " fill="#B1FBE7" transform="translate(318.5625,167.0625)"/>
<path d="M0 0 C1.65 0 3.3 0 5 0 C4.01 0.495 4.01 0.495 3 1 C3 4.96 3 8.92 3 13 C3.66 13.33 4.32 13.66 5 14 C3.35 14 1.7 14 0 14 C0 9.38 0 4.76 0 0 Z " fill="#93F9E0" transform="translate(99,232)"/>
<path d="M0 0 C1.32 0 2.64 0 4 0 C3.85930804 2.12534659 3.71229079 4.25027529 3.5625 6.375 C3.48128906 7.55835938 3.40007812 8.74171875 3.31640625 9.9609375 C3 13 3 13 2 15 C1.34 15 0.68 15 0 15 C0 10.05 0 5.1 0 0 Z " fill="#ECFEFC" transform="translate(204,173)"/>
<path d="M0 0 C2.27076842 -0.02699725 4.54162821 -0.04639453 6.8125 -0.0625 C8.07707031 -0.07410156 9.34164063 -0.08570313 10.64453125 -0.09765625 C14 0 14 0 17 1 C17 2.65 17 4.3 17 6 C16.1028125 5.2884375 16.1028125 5.2884375 15.1875 4.5625 C10.59993775 2.31369498 6.04972703 2.256466 1 2 C0.67 2.99 0.34 3.98 0 5 C0 3.35 0 1.7 0 0 Z " fill="#D1FDF3" transform="translate(282,170)"/>
<path d="M0 0 C2.31243792 -0.02685412 4.6249627 -0.04632841 6.9375 -0.0625 C8.22527344 -0.07410156 9.51304687 -0.08570313 10.83984375 -0.09765625 C14 0 14 0 15 1 C15.04080783 2.99958364 15.04254356 5.00045254 15 7 C14.01 7.495 14.01 7.495 13 8 C12.67 6.02 12.34 4.04 12 2 C8.04 2 4.08 2 0 2 C0 1.34 0 0.68 0 0 Z " fill="#9EF6DE" transform="translate(231,168)"/>
<path d="M0 0 C0.89203125 0.01804688 1.7840625 0.03609375 2.703125 0.0546875 C3.71632813 0.08949219 3.71632813 0.08949219 4.75 0.125 C4.75 0.785 4.75 1.445 4.75 2.125 C0.79 2.785 -3.17 3.445 -7.25 4.125 C-7.58 5.115 -7.91 6.105 -8.25 7.125 C-8.91 7.125 -9.57 7.125 -10.25 7.125 C-10 4.75 -10 4.75 -9.25 2.125 C-6.16872876 0.0521448 -3.65291922 -0.09612945 0 0 Z " fill="#ADFAEA" transform="translate(111.25,167.875)"/>
<path d="M0 0 C4.13621084 3.3810038 7.81316569 6.66590534 11 11 C10.01 11 9.02 11 8 11 C7.67 11.66 7.34 12.32 7 13 C4.69 10.69 2.38 8.38 0 6 C0.66 5.34 1.32 4.68 2 4 C1.34 2.68 0.68 1.36 0 0 Z " fill="#3BA68F" transform="translate(320,99)"/>
<path d="M0 0 C2.49361571 1.20381448 4.68143083 2.45428722 7 4 C7.33 3.34 7.66 2.68 8 2 C10.61500768 4.36595933 12.38999603 6.86049226 14 10 C13.67 10.66 13.34 11.32 13 12 C7.77708094 9.38854047 3.87612635 5.28970808 0 1 C0 0.67 0 0.34 0 0 Z " fill="#30A389" transform="translate(309,93)"/>
<path d="M0 0 C0 0.99 0 1.98 0 3 C-0.66 3 -1.32 3 -2 3 C-2.061875 3.61875 -2.12375 4.2375 -2.1875 4.875 C-3 7 -3 7 -5.5625 8.25 C-6.366875 8.4975 -7.17125 8.745 -8 9 C-8 9.66 -8 10.32 -8 11 C-9.32 11.33 -10.64 11.66 -12 12 C-6.08805031 0 -6.08805031 0 0 0 Z " fill="#13C796" transform="translate(235,91)"/>
<path d="M0 0 C0 0.66 0 1.32 0 2 C-0.99 2 -1.98 2 -3 2 C-3.33 2.99 -3.66 3.98 -4 5 C-6.4375 6.25 -6.4375 6.25 -9 7 C-9.66 6.67 -10.32 6.34 -11 6 C-11 5.34 -11 4.68 -11 4 C-10.34 4 -9.68 4 -9 4 C-8.71125 3.360625 -8.4225 2.72125 -8.125 2.0625 C-6.00428289 -1.82548136 -3.86823244 -0.91616031 0 0 Z " fill="#1EAB8B" transform="translate(308,88)"/>
<path d="M0 0 C0.66 0 1.32 0 2 0 C2 1.32 2 2.64 2 4 C2.99 4.33 3.98 4.66 5 5 C3.78192862 6.15762119 2.54998765 7.3006583 1.3125 8.4375 C0.28576172 9.39462891 0.28576172 9.39462891 -0.76171875 10.37109375 C-3.22289422 12.16221098 -5.00816574 12.62798558 -8 13 C-7.04270084 11.87411986 -6.08412105 10.7493285 -5.125 9.625 C-4.59132813 8.99851562 -4.05765625 8.37203125 -3.5078125 7.7265625 C-2.38567993 6.44163349 -1.20628025 5.20628025 0 4 C0 2.68 0 1.36 0 0 Z " fill="#2AA388" transform="translate(293,95)"/>
<path d="M0 0 C5.61 0 11.22 0 17 0 C17.33 0.99 17.66 1.98 18 3 C12.72 2.67 7.44 2.34 2 2 C1.67 2.99 1.34 3.98 1 5 C0.67 3.35 0.34 1.7 0 0 Z " fill="#9BF8DE" transform="translate(280,168)"/>
<path d="M0 0 C3.38276494 0.60406517 5.34321071 1.85742799 8 4 C8.99 4.66 9.98 5.32 11 6 C9.824375 6.12375 9.824375 6.12375 8.625 6.25 C5.85250896 6.72806339 5.85250896 6.72806339 4.6875 9.0625 C4.460625 9.701875 4.23375 10.34125 4 11 C3.566875 9.88625 3.566875 9.88625 3.125 8.75 C2.071251 6.06092912 2.071251 6.06092912 0.875 3.8125 C0 2 0 2 0 0 Z " fill="#2EB390" transform="translate(275,139)"/>
<path d="M0 0 C5.94 0 11.88 0 18 0 C18 0.66 18 1.32 18 2 C11.41276707 3.04559253 6.40766041 2.83292414 0 1 C0 0.67 0 0.34 0 0 Z " fill="#DEFEFE" transform="translate(221,200)"/>
<path d="M0 0 C2.31 0 4.62 0 7 0 C8.03115279 3.26913624 7.9638984 5.86041348 7.5625 9.25 C7.46066406 10.14203125 7.35882813 11.0340625 7.25390625 11.953125 C7.17011719 12.62859375 7.08632813 13.3040625 7 14 C6.67 14 6.34 14 6 14 C5.34 10.37 4.68 6.74 4 3 C2.68 2.67 1.36 2.34 0 2 C0 1.34 0 0.68 0 0 Z " fill="#B7FBEE" transform="translate(391,168)"/>
<path d="M0 0 C1.12894876 0.93274109 2.25300876 1.87140122 3.375 2.8125 C4.00148437 3.33457031 4.62796875 3.85664062 5.2734375 4.39453125 C7 6 7 6 9 9 C8.01 9 7.02 9 6 9 C5.34 9.66 4.68 10.32 4 11 C2.35 9.02 0.7 7.04 -1 5 C-0.01 5.33 0.98 5.66 2 6 C1.34 4.02 0.68 2.04 0 0 Z " fill="#35B293" transform="translate(209,122)"/>
<path d="M0 0 C1.875 0.6875 1.875 0.6875 4 2 C4.66 3.65 5.32 5.3 6 7 C2.37 7 -1.26 7 -5 7 C-4.360625 6.21625 -3.72125 5.4325 -3.0625 4.625 C-1.01857687 2.20460719 -1.01857687 2.20460719 0 0 Z " fill="#CBFBF7" transform="translate(201,240)"/>
<path d="M0 0 C0.66 0.33 1.32 0.66 2 1 C4.71262116 1.2322646 7.40773126 1.41936235 10.125 1.5625 C11.25615234 1.62727539 11.25615234 1.62727539 12.41015625 1.69335938 C14.27321888 1.7994832 16.13658524 1.90025001 18 2 C17.67 2.66 17.34 3.32 17 4 C11.72 4 6.44 4 1 4 C0.67 5.65 0.34 7.3 0 9 C-0.33 9 -0.66 9 -1 9 C-1.09765625 2.84765625 -1.09765625 2.84765625 -1 1 C-0.67 0.67 -0.34 0.34 0 0 Z " fill="#BEFAE8" transform="translate(164,168)"/>
<path d="M0 0 C2.40585935 0.32078125 3.83996928 0.88411569 5.8125 2.3125 C7 4 7 4 6.6875 6.1875 C6.460625 6.785625 6.23375 7.38375 6 8 C0.24268105 5.55007704 0.24268105 5.55007704 -0.9375 2.875 C-0.958125 2.25625 -0.97875 1.6375 -1 1 C-0.67 0.67 -0.34 0.34 0 0 Z " fill="#1EB593" transform="translate(187,135)"/>
<path d="M0 0 C6.875 2.875 6.875 2.875 8 4 C8.25 6.4375 8.25 6.4375 8 9 C5 11 5 11 2.3125 10.625 C1.549375 10.41875 0.78625 10.2125 0 10 C0 9.67 0 9.34 0 9 C1.65 8.67 3.3 8.34 5 8 C5 6.35 5 4.7 5 3 C3.35 2.67 1.7 2.34 0 2 C0 1.34 0 0.68 0 0 Z " fill="#37C19C" transform="translate(229,142)"/>
<path d="M0 0 C2.5497815 4.88529565 4 9.45157389 4 15 C3.34 15 2.68 15 2 15 C-0.10428384 9.87080814 -0.21755666 5.4389165 0 0 Z " fill="#E0FEFD" transform="translate(193,217)"/>
<path d="M0 0 C1.2065625 0.0309375 1.2065625 0.0309375 2.4375 0.0625 C2.7675 1.3825 3.0975 2.7025 3.4375 4.0625 C2.4475 4.5575 2.4475 4.5575 1.4375 5.0625 C0.4475 4.7325 -0.5425 4.4025 -1.5625 4.0625 C-1.8925 4.7225 -2.2225 5.3825 -2.5625 6.0625 C-2.94468767 4.40635343 -3.27645102 2.73792976 -3.5625 1.0625 C-2.5625 0.0625 -2.5625 0.0625 0 0 Z " fill="#14AB7D" transform="translate(261.5625,125.9375)"/>
<path d="M0 0 C0 0.66 0 1.32 0 2 C-2.97 3.32 -5.94 4.64 -9 6 C-7.57649362 0.30597447 -5.47459746 -0.29592419 0 0 Z " fill="#A8F9DE" transform="translate(214,168)"/>
<path d="M0 0 C2.33294775 -0.04241723 4.66702567 -0.04092937 7 0 C7.33 0.33 7.66 0.66 8 1 C10.32817964 1.36760731 12.6618385 1.70241581 15 2 C15 2.33 15 2.66 15 3 C13.25008666 3.02715383 11.50005055 3.04646551 9.75 3.0625 C8.28820312 3.07990234 8.28820312 3.07990234 6.796875 3.09765625 C4.34241322 3.01195577 2.33831086 2.70706066 0 2 C0 1.34 0 0.68 0 0 Z " fill="#B4FAEC" transform="translate(124,168)"/>
<path d="M0 0 C1.65 0 3.3 0 5 0 C5 1.65 5 3.3 5 5 C2.5625 4.625 2.5625 4.625 0 4 C-0.33 3.34 -0.66 2.68 -1 2 C-0.67 1.34 -0.34 0.68 0 0 Z " fill="#0DECA9" transform="translate(325,146)"/>
<path d="M0 0 C1.65 0.33 3.3 0.66 5 1 C4.67 2.32 4.34 3.64 4 5 C2.02 5 0.04 5 -2 5 C-1.34 4.67 -0.68 4.34 0 4 C0 2.68 0 1.36 0 0 Z " fill="#0FEFB0" transform="translate(230,146)"/>
<path d="M0 0 C0.66 0 1.32 0 2 0 C2 0.66 2 1.32 2 2 C2.94875 1.938125 3.8975 1.87625 4.875 1.8125 C5.90625 1.874375 6.9375 1.93625 8 2 C8.99 3.485 8.99 3.485 10 5 C9.01 5.33 8.02 5.66 7 6 C6.01 6.495 6.01 6.495 5 7 C5 6.34 5 5.68 5 5 C4.34 5 3.68 5 3 5 C3 4.34 3 3.68 3 3 C2.34 3 1.68 3 1 3 C0.67 2.01 0.34 1.02 0 0 Z " fill="#33AB90" transform="translate(180,131)"/>
<path d="M0 0 C1.32 0.33 2.64 0.66 4 1 C0.82679218 4.53586014 -1.16743695 6.58578031 -6 7 C-4.02 4.69 -2.04 2.38 0 0 Z " fill="#26A78B" transform="translate(275,117)"/>
<path d="M0 0 C0.66 0.33 1.32 0.66 2 1 C0.19587357 4.26460973 -0.83394693 5.88929795 -4 8 C-4.66 7.67 -5.32 7.34 -6 7 C-6 6.34 -6 5.68 -6 5 C-4.04072937 3.2856382 -2.04119788 1.61594832 0 0 Z " fill="#23A784" transform="translate(283,109)"/>
<path d="M0 0 C1.32 0 2.64 0 4 0 C4 1.65 4 3.3 4 5 C2.68 5.33 1.36 5.66 0 6 C-1 3 -1 3 0 0 Z " fill="#0AECA8" transform="translate(242,145)"/>
<path d="M0 0 C1.32 0 2.64 0 4 0 C3.67 1.65 3.34 3.3 3 5 C1.68 5 0.36 5 -1 5 C-0.67 3.35 -0.34 1.7 0 0 Z " fill="#0CF0AD" transform="translate(293,146)"/>
<path d="M0 0 C3.36720387 1.39332574 4.9859524 2.9789286 7 6 C6.01 6 5.02 6 4 6 C3.67 6.66 3.34 7.32 3 8 C2.01 7.01 1.02 6.02 0 5 C0.99 5 1.98 5 3 5 C2.04134491 2.66924071 2.04134491 2.66924071 -1 1 C-0.67 0.67 -0.34 0.34 0 0 Z " fill="#39A38E" transform="translate(305,85)"/>
<path d="M0 0 C1.32 0 2.64 0 4 0 C3.67 0.99 3.34 1.98 3 3 C2.34 3 1.68 3 1 3 C1 6.96 1 10.92 1 15 C0.67 15 0.34 15 0 15 C0 10.05 0 5.1 0 0 Z " fill="#CCFEF6" transform="translate(204,173)"/>
<path d="M0 0 C0.99 0 1.98 0 3 0 C2.67 4.29 2.34 8.58 2 13 C1.67 13 1.34 13 1 13 C0.67 8.71 0.34 4.42 0 0 Z " fill="#C1FDF3" transform="translate(425,174)"/>
<path d="M0 0 C2.475 0.495 2.475 0.495 5 1 C5 2.32 5 3.64 5 5 C3.68 5 2.36 5 1 5 C0.67 3.35 0.34 1.7 0 0 Z " fill="#0CF1AB" transform="translate(197,146)"/>
<path d="M0 0 C2.9375 0.75 2.9375 0.75 6 2 C6.875 4.125 6.875 4.125 7 6 C4.625 5.8125 4.625 5.8125 2 5 C0.6875 2.4375 0.6875 2.4375 0 0 Z " fill="#29A589" transform="translate(326,108)"/>
<path d="M0 0 C-0.66 1.65 -1.32 3.3 -2 5 C-4.475 4.01 -4.475 4.01 -7 3 C-7 2.01 -7 1.02 -7 0 C-2.25 -1.125 -2.25 -1.125 0 0 Z " fill="#1BC69C" transform="translate(303,94)"/>
<path d="M0 0 C1.65 0 3.3 0 5 0 C5 0.99 5 1.98 5 3 C3.02 3.99 3.02 3.99 1 5 C0.67 3.35 0.34 1.7 0 0 Z " fill="#94EFC3" transform="translate(328,168)"/>
<path d="M0 0 C0 3.38023517 -0.87455622 5.83468937 -2 9 C-2.33 8.34 -2.66 7.68 -3 7 C-4.32 7.33 -5.64 7.66 -7 8 C-6.02133662 6.85373678 -5.04205413 5.70800212 -4.0625 4.5625 C-3.51722656 3.92441406 -2.97195312 3.28632812 -2.41015625 2.62890625 C-1.63204305 1.73008851 -0.84063472 0.84063472 0 0 Z " fill="#359D87" transform="translate(217,88)"/>
<path d="M0 0 C0.99 1.32 1.98 2.64 3 4 C2.01 4.99 1.02 5.98 0 7 C0 6.01 0 5.02 0 4 C-1.65 4.66 -3.3 5.32 -5 6 C-3.35 4.02 -1.7 2.04 0 0 Z " fill="#38B392" transform="translate(243,79)"/>
<path d="M0 0 C1.0326802 2.78823655 1.04509293 3.8677274 0.0625 6.75 C-0.288125 7.4925 -0.63875 8.235 -1 9 C-1.66 9 -2.32 9 -3 9 C-2.4140625 2.84765625 -2.4140625 2.84765625 -2 1 C-1.34 0.67 -0.68 0.34 0 0 Z " fill="#DEFFFD" transform="translate(160,193)"/>
<path d="M0 0 C0.66 0.33 1.32 0.66 2 1 C1.67 2.65 1.34 4.3 1 6 C0.01 6.33 -0.98 6.66 -2 7 C-2 3 -2 3 0 0 Z " fill="#1EB18B" transform="translate(341,132)"/>
<path d="M0 0 C0.33 0.99 0.66 1.98 1 3 C1.66 3 2.32 3 3 3 C3.33 4.98 3.66 6.96 4 9 C3.67 8.34 3.34 7.68 3 7 C0.98330173 5.86649466 0.98330173 5.86649466 -1 5 C-0.67 3.35 -0.34 1.7 0 0 Z " fill="#1EB998" transform="translate(265,127)"/>
<path d="M0 0 C0.66 0 1.32 0 2 0 C4.1875 2.8125 4.1875 2.8125 6 6 C5.67 6.99 5.34 7.98 5 9 C1.13892543 6.42595029 1.05680308 4.38979741 0 0 Z " fill="#14C595" transform="translate(206,120)"/>
<path d="M0 0 C0.66 0.33 1.32 0.66 2 1 C1.3125 2.9375 1.3125 2.9375 0 5 C-2.625 5.75 -2.625 5.75 -5 6 C-3.35 4.02 -1.7 2.04 0 0 Z " fill="#26A283" transform="translate(204,103)"/>
<path d="M0 0 C-0.375 2.4375 -0.375 2.4375 -1 5 C-1.99 5.495 -1.99 5.495 -3 6 C-3.66 5.67 -4.32 5.34 -5 5 C-5 4.01 -5 3.02 -5 2 C-2 0 -2 0 0 0 Z " fill="#26BE93" transform="translate(243,83)"/>
<path d="M0 0 C1.9375 0.375 1.9375 0.375 4 1 C4.33 1.66 4.66 2.32 5 3 C4.2575 3.144375 3.515 3.28875 2.75 3.4375 C0.47972261 3.90187492 -1.75759479 4.41863569 -4 5 C-2.68 3.35 -1.36 1.7 0 0 Z " fill="#2DBB96" transform="translate(262,60)"/>
<path d="M0 0 C0.66 0.33 1.32 0.66 2 1 C2 2.65 2 4.3 2 6 C0.68 5.67 -0.64 5.34 -2 5 C-1.34 3.35 -0.68 1.7 0 0 Z " fill="#D0F4ED" transform="translate(330,241)"/>
<path d="M0 0 C0.33 0 0.66 0 1 0 C1 1.98 1 3.96 1 6 C1.66 6 2.32 6 3 6 C2.67 7.65 2.34 9.3 2 11 C1.34 11 0.68 11 0 11 C0 7.37 0 3.74 0 0 Z " fill="#C3FCF3" transform="translate(139,172)"/>
<path d="M0 0 C1.65 0 3.3 0 5 0 C5 1.65 5 3.3 5 5 C4.01 5 3.02 5 2 5 C1.34 3.35 0.68 1.7 0 0 Z " fill="#99F2D9" transform="translate(423,169)"/>
<path d="M0 0 C0.99 0.33 1.98 0.66 3 1 C3 1.66 3 2.32 3 3 C4.65 3 6.3 3 8 3 C7.67 3.66 7.34 4.32 7 5 C4.03 4.505 4.03 4.505 1 4 C0.67 2.68 0.34 1.36 0 0 Z " fill="#42CCA0" transform="translate(195,148)"/>
<path d="M0 0 C0.33 0.66 0.66 1.32 1 2 C1.639375 2.309375 2.27875 2.61875 2.9375 2.9375 C5 4 5 4 7 7 C5.68 6.67 4.36 6.34 3 6 C3 5.34 3 4.68 3 4 C2.01 4 1.02 4 0 4 C0 2.68 0 1.36 0 0 Z " fill="#1AB38D" transform="translate(295,95)"/>
<path d="M0 0 C1.32 0.33 2.64 0.66 4 1 C4 1.99 4 2.98 4 4 C3.01 4.33 2.02 4.66 1 5 C0.67 3.35 0.34 1.7 0 0 Z " fill="#21C299" transform="translate(244,78)"/>
<path d="M0 0 C0.99 0 1.98 0 3 0 C3 0.66 3 1.32 3 2 C2.01 2 1.02 2 0 2 C0 1.34 0 0.68 0 0 Z " fill="#AAFFFF" transform="translate(200,234)"/>
</svg>
